<svg width="135" height="40" viewBox="0 0 135 40" fill="none" xmlns="http://www.w3.org/2000/svg">
<g clip-path="url(#clip0_2065_3092)">
<path fill-rule="evenodd" clip-rule="evenodd" d="M10.7566 1.72057e-06H124.249C124.655 1.72057e-06 125.067 -0.000128279 125.472 0.00187172C125.753 0.00346346 126.039 0.00766047 126.322 0.0118031C126.386 0.0127355 126.449 0.0136652 126.512 0.0145617C127.269 0.0220095 128.023 0.0811045 128.769 0.191322C129.518 0.304242 130.243 0.515569 130.921 0.818322C132.278 1.43603 133.383 2.4152 134.079 3.61812C134.419 4.2175 134.655 4.85928 134.777 5.52144C134.903 6.18324 134.973 6.85242 134.987 7.52344C134.991 7.83008 134.991 8.1377 134.991 8.44434C135 8.80664 135 9.16992 135 9.53613V30.4648C135 30.834 135 31.1953 134.991 31.5586C134.991 31.8691 134.991 32.1699 134.987 32.4805C134.973 33.1515 134.903 33.8206 134.777 34.4824C134.655 35.1449 134.42 35.7871 134.079 36.3867C133.733 36.9835 133.283 37.5282 132.746 38.001C132.213 38.4778 131.597 38.8758 130.921 39.1797C130.243 39.4833 129.518 39.6958 128.769 39.8105C128.023 39.9198 127.268 39.9789 126.512 39.9873C126.169 39.9941 125.816 39.998 125.472 39.998C125.067 40 124.655 40 124.249 40H10.7566C10.343 40 9.93419 40 9.5216 39.998C9.17621 39.998 8.83358 39.9941 8.48488 39.9873C7.72738 39.9785 6.9717 39.9194 6.22416 39.8105C5.47772 39.6966 4.75481 39.484 4.07967 39.1797C3.40371 38.876 2.78717 38.478 2.25357 38.001C1.71505 37.5301 1.26616 36.9849 0.924356 36.3867C0.581124 35.7875 0.343339 35.1453 0.219258 34.4824C0.0936522 33.8207 0.0260614 33.1514 0.0170916 32.4805C0.00993901 32.2683 0.00715699 32.0607 0.00435296 31.8514C0.0030527 31.7544 0.00174771 31.657 0 31.5586V8.44434C0.00176842 8.34604 0.00308357 8.24765 0.00439918 8.14922C0.0071877 7.94059 0.00997831 7.7318 0.0170916 7.52348C0.0260586 6.85252 0.0936495 6.18319 0.219258 5.52148C0.343683 4.85894 0.581453 4.21711 0.924356 3.61816C1.26632 3.01802 1.71514 2.47064 2.25357 1.99707C2.7892 1.52217 3.40534 1.12447 4.07967 0.818412C4.75482 0.514917 5.4778 0.303534 6.22416 0.191412C6.97157 0.081678 7.72733 0.0226035 8.48488 0.0147017C8.55727 0.0136865 8.6294 0.0126317 8.70135 0.0115795C8.97596 0.00756356 9.24792 0.00358651 9.5216 0.00200172C9.9342 1.72062e-06 10.3429 1.72057e-06 10.7566 1.72057e-06ZM8.40804 39.1173C8.74966 39.1241 9.08566 39.128 9.42998 39.128L124.35 39.13L125.576 39.128C125.912 39.128 126.259 39.1241 126.59 39.1173C127.297 39.1097 128.004 39.0551 128.702 38.9542C129.358 38.8557 129.993 38.6703 130.587 38.4043C131.173 38.1407 131.707 37.7954 132.169 37.3815C132.631 36.9758 133.018 36.5081 133.316 35.9956C133.615 35.4698 133.821 34.9064 133.927 34.3252C134.042 33.7122 134.106 33.0926 134.12 32.4713C134.124 32.1646 134.124 31.8667 134.124 31.5414C134.133 31.1839 134.133 30.8294 134.133 30.466V9.53295C134.133 9.17301 134.133 8.81601 134.124 8.44093C134.124 8.13813 134.124 7.83386 134.121 7.55061C134.107 6.91801 134.042 6.28713 133.924 5.663C133.818 5.0894 133.614 4.53335 133.32 4.01374C132.718 2.97461 131.763 2.12826 130.59 1.5933C129.995 1.32872 129.359 1.14404 128.702 1.04533C128.008 0.944474 127.306 0.890111 126.602 0.882711L125.57 0.870008H9.43053L8.41082 0.882221C7.70067 0.890008 6.99218 0.94486 6.29129 1.04631C5.6412 1.1438 5.01136 1.3272 4.42286 1.59037C3.83742 1.85582 3.30266 2.20091 2.83807 2.61305C2.37296 3.02132 1.98554 3.4935 1.69085 4.01129C1.39165 4.53452 1.18454 5.09514 1.07668 5.67374C0.960772 6.2928 0.898236 6.91875 0.889618 7.5462C0.883007 7.74938 0.873016 8.44093 0.873016 8.44093V31.5463C0.873016 31.5463 0.882396 32.2487 0.889561 32.4596C0.898562 33.0881 0.961463 33.715 1.07772 34.335C1.18538 34.912 1.39233 35.471 1.69137 35.9925C1.98715 36.5107 2.37673 36.9825 2.84466 37.3893C3.30591 37.801 3.83897 38.1443 4.42342 38.4062C5.01327 38.6702 5.6443 38.8549 6.29571 38.9542C6.9943 39.0546 7.70034 39.1091 8.40804 39.1173Z" fill="#A6A6A6"/>
<path d="M9.42998 39.1281C9.08566 39.1281 8.74966 39.1242 8.40804 39.1174C7.70034 39.1093 6.9943 39.0547 6.29571 38.9543C5.6443 38.855 5.01327 38.6703 4.42342 38.4063C3.83897 38.1444 3.30591 37.8011 2.84466 37.3895C2.37673 36.9826 1.98715 36.5108 1.69137 35.9927C1.39233 35.4711 1.18538 34.9121 1.07772 34.3351C0.961463 33.7151 0.898562 33.0882 0.889561 32.4597C0.882396 32.2488 0.873016 31.5464 0.873016 31.5464V8.44104C0.873016 8.44104 0.883007 7.74949 0.889618 7.54631C0.898236 6.91886 0.960772 6.2929 1.07668 5.67385C1.18454 5.09525 1.39165 4.53463 1.69085 4.0114C1.98554 3.49361 2.37296 3.02143 2.83807 2.61316C3.30266 2.20102 3.83742 1.85593 4.42286 1.59048C5.01136 1.32731 5.6412 1.14391 6.29129 1.04642C6.99218 0.944969 7.70067 0.890117 8.41082 0.88233L9.43053 0.870117H125.57L126.602 0.88282C127.306 0.890221 128.008 0.944583 128.702 1.04544C129.359 1.14415 129.995 1.32883 130.59 1.59341C131.763 2.12837 132.718 2.97472 133.32 4.01384C133.614 4.53346 133.818 5.08951 133.924 5.66311C134.042 6.28724 134.107 6.91812 134.121 7.55071C134.124 7.83397 134.124 8.13824 134.124 8.44104C134.133 8.81612 134.133 9.17312 134.133 9.53306V30.4661C134.133 30.8295 134.133 31.1841 134.124 31.5415C134.124 31.8668 134.124 32.1648 134.12 32.4714C134.106 33.0927 134.042 33.7123 133.927 34.3253C133.821 34.9065 133.615 35.4699 133.316 35.9957C133.018 36.5082 132.631 36.9759 132.169 37.3817C131.707 37.7955 131.173 38.1409 130.587 38.4044C129.993 38.6704 129.358 38.8558 128.702 38.9543C128.004 39.0553 127.297 39.1098 126.59 39.1174C126.259 39.1242 125.912 39.1281 125.576 39.1281L124.35 39.1301L9.42998 39.1281Z" fill="black"/>
<path d="M32.7973 20.3013C32.8081 19.4666 33.0298 18.6483 33.4418 17.9223C33.8538 17.1964 34.4428 16.5864 35.1539 16.1492C34.7021 15.5041 34.1062 14.9731 33.4134 14.5986C32.7205 14.224 31.9499 14.0162 31.1627 13.9916C29.4835 13.8153 27.8555 14.9964 26.9998 14.9964C26.1275 14.9964 24.81 14.0091 23.3913 14.0383C22.4736 14.0679 21.5793 14.3348 20.7954 14.8128C20.0115 15.2909 19.3649 15.9638 18.9184 16.7661C16.9844 20.1145 18.427 25.0356 20.2796 27.7422C21.2065 29.0676 22.2898 30.548 23.7072 30.4955C25.0943 30.438 25.6123 29.611 27.2866 29.611C28.9454 29.611 29.4314 30.4955 30.8776 30.4621C32.366 30.438 33.3038 29.1309 34.1981 27.793C34.8641 26.8486 35.3766 25.8049 35.7166 24.7005C34.8518 24.3347 34.1139 23.7226 33.5948 22.9403C33.0757 22.158 32.7983 21.2402 32.7973 20.3013Z" fill="white"/>
<path d="M30.0657 12.2113C30.8772 11.2371 31.277 9.98494 31.1802 8.7207C29.9404 8.85092 28.7951 9.44348 27.9726 10.3803C27.5705 10.838 27.2625 11.3704 27.0662 11.9472C26.87 12.524 26.7893 13.1337 26.8289 13.7417C27.449 13.7481 28.0626 13.6137 28.6232 13.3486C29.1839 13.0835 29.6771 12.6946 30.0657 12.2113Z" fill="white"/>
<path d="M50.3307 27.1387H45.5973L44.4606 30.4952H42.4557L46.9391 18.0772H49.0221L53.5055 30.4952H51.4664L50.3307 27.1387ZM46.0875 25.5899H49.8395L47.9899 20.1426H47.9382L46.0875 25.5899Z" fill="white"/>
<path d="M63.1881 25.9688C63.1881 28.7823 61.6823 30.5899 59.4098 30.5899C58.8342 30.62 58.2617 30.4874 57.7579 30.2073C57.2541 29.9271 56.8393 29.5108 56.5612 29.0059H56.5182V33.4903H54.6598V21.4415H56.4586V22.9473H56.4928C56.7838 22.4449 57.2055 22.0307 57.7131 21.7488C58.2208 21.467 58.7953 21.328 59.3756 21.3467C61.6734 21.3467 63.1881 23.1631 63.1881 25.9688ZM61.278 25.9688C61.278 24.1358 60.3307 22.9307 58.8854 22.9307C57.4655 22.9307 56.5104 24.1612 56.5104 25.9688C56.5104 27.793 57.4655 29.0147 58.8854 29.0147C60.3307 29.0147 61.278 27.8184 61.278 25.9688Z" fill="white"/>
<path d="M73.153 25.9688C73.153 28.7823 71.6471 30.5899 69.3746 30.5899C68.799 30.62 68.2265 30.4874 67.7227 30.2073C67.2189 29.9271 66.8042 29.5108 66.526 29.0059H66.483V33.4903H64.6246V21.4415H66.4234V22.9473H66.4576C66.7486 22.4449 67.1703 22.0307 67.6779 21.7488C68.1856 21.467 68.7601 21.328 69.3404 21.3467C71.6383 21.3467 73.153 23.1631 73.153 25.9688ZM71.2428 25.9688C71.2428 24.1358 70.2955 22.9307 68.8502 22.9307C67.4303 22.9307 66.4752 24.1612 66.4752 25.9688C66.4752 27.793 67.4303 29.0147 68.8502 29.0147C70.2955 29.0147 71.2428 27.8184 71.2428 25.9688Z" fill="white"/>
<path d="M79.7389 27.0352C79.8766 28.2667 81.0729 29.0752 82.7077 29.0752C84.2741 29.0752 85.401 28.2666 85.401 27.1563C85.401 26.1924 84.7213 25.6153 83.112 25.2197L81.5026 24.832C79.2223 24.2813 78.1637 23.2148 78.1637 21.4844C78.1637 19.3418 80.0309 17.8701 82.6823 17.8701C85.3063 17.8701 87.1051 19.3418 87.1657 21.4844H85.2897C85.1774 20.2451 84.1529 19.4971 82.6559 19.4971C81.1588 19.4971 80.1344 20.2539 80.1344 21.3555C80.1344 22.2334 80.7887 22.75 82.3893 23.1455L83.7574 23.4814C86.3053 24.084 87.3639 25.1074 87.3639 26.9238C87.3639 29.247 85.5133 30.7021 82.5699 30.7021C79.816 30.7021 77.9567 29.2812 77.8365 27.0351L79.7389 27.0352Z" fill="white"/>
<path d="M91.3746 19.2989V21.4415H93.0963V22.9131H91.3746V27.9043C91.3746 28.6797 91.7194 29.0411 92.4762 29.0411C92.6806 29.0375 92.8847 29.0231 93.0875 28.9981V30.461C92.7473 30.5245 92.4014 30.5533 92.0553 30.5469C90.2223 30.5469 89.5075 29.8584 89.5075 28.1026V22.9131H88.1911V21.4415H89.5074V19.2989H91.3746Z" fill="white"/>
<path d="M94.0934 25.9688C94.0934 23.1202 95.7712 21.3301 98.3874 21.3301C101.012 21.3301 102.682 23.1201 102.682 25.9688C102.682 28.8253 101.021 30.6075 98.3874 30.6075C95.7545 30.6075 94.0934 28.8252 94.0934 25.9688ZM100.789 25.9688C100.789 24.0147 99.8932 22.8614 98.3874 22.8614C96.8815 22.8614 95.987 24.0235 95.987 25.9688C95.987 27.9307 96.8815 29.0753 98.3874 29.0753C99.8932 29.0753 100.789 27.9307 100.789 25.9688Z" fill="white"/>
<path d="M104.214 21.4415H105.987V22.9825H106.03C106.15 22.5012 106.432 22.0758 106.828 21.778C107.225 21.4801 107.712 21.3278 108.208 21.3467C108.422 21.346 108.635 21.3692 108.844 21.4161V23.1543C108.574 23.0717 108.292 23.0338 108.009 23.042C107.739 23.0311 107.47 23.0787 107.22 23.1816C106.971 23.2845 106.746 23.4402 106.562 23.6381C106.378 23.836 106.239 24.0713 106.155 24.328C106.07 24.5847 106.042 24.8566 106.073 25.125V30.4952H104.214L104.214 21.4415Z" fill="white"/>
<path d="M117.413 27.836C117.163 29.4795 115.562 30.6075 113.514 30.6075C110.881 30.6075 109.246 28.8428 109.246 26.0118C109.246 23.1719 110.889 21.3301 113.436 21.3301C115.941 21.3301 117.516 23.0508 117.516 25.7959V26.4327H111.122V26.545C111.092 26.8782 111.134 27.2138 111.244 27.5297C111.354 27.8455 111.53 28.1343 111.761 28.3768C111.991 28.6194 112.27 28.8102 112.58 28.9365C112.89 29.0628 113.223 29.1217 113.557 29.1094C113.996 29.1506 114.437 29.0489 114.814 28.8194C115.191 28.59 115.483 28.2451 115.648 27.836L117.413 27.836ZM111.131 25.1338H115.657C115.674 24.8342 115.628 24.5344 115.523 24.2532C115.419 23.972 115.257 23.7155 115.049 23.4997C114.84 23.2839 114.589 23.1136 114.312 22.9994C114.034 22.8852 113.736 22.8295 113.436 22.836C113.134 22.8342 112.834 22.8923 112.554 23.0071C112.273 23.1218 112.019 23.2909 111.805 23.5045C111.59 23.7181 111.42 23.9721 111.305 24.2518C111.189 24.5314 111.13 24.8312 111.131 25.1338Z" fill="white"/>
<path d="M45.8546 8.73052C46.2442 8.70256 46.6352 8.76142 46.9993 8.90286C47.3634 9.04429 47.6916 9.26477 47.9602 9.54839C48.2288 9.83202 48.4311 10.1717 48.5525 10.543C48.6739 10.9143 48.7114 11.3078 48.6622 11.6954C48.6622 13.6016 47.632 14.6974 45.8546 14.6974H43.6993V8.73052H45.8546ZM44.6261 13.8535H45.7511C46.0295 13.8702 46.3081 13.8245 46.5667 13.7199C46.8252 13.6153 47.0572 13.4543 47.2456 13.2488C47.4341 13.0432 47.5744 12.7982 47.6563 12.5316C47.7381 12.265 47.7595 11.9834 47.7189 11.7075C47.7566 11.4327 47.733 11.1529 47.6499 10.8883C47.5668 10.6236 47.4262 10.3806 47.2381 10.1767C47.05 9.97273 46.8192 9.81292 46.5621 9.70868C46.305 9.60445 46.0281 9.55836 45.7511 9.57373H44.6261V13.8535Z" fill="white"/>
<path d="M49.7091 12.4439C49.6808 12.1479 49.7147 11.8494 49.8085 11.5673C49.9023 11.2852 50.0541 11.0259 50.254 10.8059C50.454 10.5859 50.6977 10.4102 50.9695 10.2899C51.2414 10.1696 51.5354 10.1075 51.8326 10.1075C52.1299 10.1075 52.4239 10.1696 52.6958 10.2899C52.9676 10.4102 53.2113 10.5859 53.4113 10.8059C53.6112 11.0259 53.763 11.2852 53.8568 11.5673C53.9506 11.8494 53.9845 12.1479 53.9562 12.4439C53.985 12.7401 53.9516 13.0391 53.858 13.3216C53.7644 13.6041 53.6127 13.8639 53.4127 14.0843C53.2127 14.3048 52.9688 14.4809 52.6967 14.6014C52.4246 14.722 52.1303 14.7842 51.8326 14.7842C51.535 14.7842 51.2407 14.722 50.9686 14.6014C50.6964 14.4809 50.4525 14.3048 50.2526 14.0843C50.0526 13.8639 49.9009 13.6041 49.8073 13.3216C49.7137 13.0391 49.6803 12.7401 49.7091 12.4439ZM53.0421 12.4439C53.0421 11.4678 52.6036 10.897 51.8341 10.897C51.0616 10.897 50.6271 11.4678 50.6271 12.4439C50.6271 13.4278 51.0617 13.9942 51.8341 13.9942C52.6036 13.9942 53.0421 13.4238 53.0421 12.4439Z" fill="white"/>
<path d="M59.6017 14.6973H58.6798L57.7492 11.3809H57.6788L56.7521 14.6973H55.839L54.5978 10.1943H55.4992L56.3058 13.6303H56.3722L57.298 10.1943H58.1505L59.0763 13.6303H59.1466L59.9493 10.1943H60.838L59.6017 14.6973Z" fill="white"/>
<path d="M61.882 10.1943H62.7374V10.9097H62.8038C62.9165 10.6528 63.1065 10.4374 63.3474 10.2936C63.5882 10.1498 63.868 10.0847 64.1476 10.1074C64.3667 10.0909 64.5867 10.124 64.7913 10.2041C64.9959 10.2842 65.1798 10.4093 65.3295 10.5701C65.4792 10.731 65.5908 10.9234 65.656 11.1333C65.7212 11.3431 65.7383 11.5649 65.7062 11.7822V14.6972H64.8175V12.0054C64.8175 11.2818 64.5031 10.9219 63.8458 10.9219C63.6971 10.915 63.5486 10.9403 63.4105 10.9961C63.2725 11.0519 63.1481 11.137 63.046 11.2453C62.9439 11.3537 62.8664 11.4829 62.8188 11.624C62.7713 11.7652 62.7549 11.9149 62.7706 12.063V14.6973H61.882L61.882 10.1943Z" fill="white"/>
<path d="M67.1222 8.43652H68.0109V14.6973H67.1222V8.43652Z" fill="white"/>
<path d="M69.2462 12.4439C69.2179 12.1479 69.2518 11.8493 69.3457 11.5673C69.4395 11.2852 69.5913 11.0258 69.7913 10.8058C69.9912 10.5859 70.235 10.4101 70.5068 10.2898C70.7787 10.1695 71.0727 10.1074 71.37 10.1074C71.6673 10.1074 71.9613 10.1695 72.2332 10.2898C72.505 10.4101 72.7488 10.5859 72.9487 10.8058C73.1487 11.0258 73.3005 11.2852 73.3943 11.5673C73.4882 11.8493 73.5221 12.1479 73.4938 12.4439C73.5226 12.7401 73.4891 13.0391 73.3955 13.3216C73.3019 13.6041 73.1502 13.8639 72.9502 14.0843C72.7501 14.3048 72.5062 14.4809 72.2341 14.6014C71.962 14.7219 71.6676 14.7842 71.37 14.7842C71.0724 14.7842 70.778 14.7219 70.5059 14.6014C70.2337 14.4809 69.9898 14.3048 69.7898 14.0843C69.5898 13.8639 69.4381 13.6041 69.3445 13.3216C69.2509 13.0391 69.2174 12.7401 69.2462 12.4439ZM72.5792 12.4439C72.5792 11.4678 72.1407 10.897 71.3712 10.897C70.5988 10.897 70.1642 11.4678 70.1642 12.4439C70.1642 13.4278 70.5988 13.9942 71.3712 13.9942C72.1407 13.9942 72.5792 13.4238 72.5792 12.4439Z" fill="white"/>
<path d="M74.4293 13.4238C74.4293 12.6133 75.0328 12.146 76.1041 12.0796L77.3239 12.0093V11.6206C77.3239 11.145 77.0094 10.8765 76.402 10.8765C75.9059 10.8765 75.5621 11.0586 75.4635 11.377H74.6032C74.694 10.6035 75.4215 10.1074 76.443 10.1074C77.5719 10.1074 78.2086 10.6694 78.2086 11.6206V14.6973H77.3532V14.0645H77.2828C77.1401 14.2915 76.9397 14.4765 76.7021 14.6007C76.4645 14.7249 76.1981 14.7839 75.9303 14.7715C75.7413 14.7911 75.5502 14.771 75.3695 14.7123C75.1887 14.6536 75.0222 14.5576 74.8808 14.4307C74.7394 14.3037 74.6262 14.1485 74.5484 13.9751C74.4706 13.8017 74.4301 13.6139 74.4293 13.4238ZM77.3239 13.0391V12.6626L76.2243 12.7329C75.6041 12.7744 75.3229 12.9854 75.3229 13.3823C75.3229 13.7876 75.6744 14.0234 76.1579 14.0234C76.2995 14.0378 76.4426 14.0235 76.5786 13.9814C76.7146 13.9393 76.8408 13.8703 76.9495 13.7784C77.0583 13.6866 77.1475 13.5738 77.2118 13.4468C77.2761 13.3198 77.3142 13.1811 77.3239 13.0391Z" fill="white"/>
<path d="M79.3766 12.4439C79.3766 11.021 80.108 10.1196 81.2457 10.1196C81.5271 10.1067 81.8064 10.1741 82.051 10.314C82.2955 10.4539 82.4951 10.6605 82.6266 10.9096H82.693V8.43652H83.5817V14.6973H82.7301V13.9858H82.6598C82.5182 14.2333 82.3116 14.4374 82.0623 14.5758C81.8131 14.7143 81.5307 14.782 81.2457 14.7715C80.1002 14.7715 79.3766 13.8701 79.3766 12.4439ZM80.2946 12.4439C80.2946 13.3989 80.7448 13.9737 81.4977 13.9737C82.2467 13.9737 82.7096 13.3907 82.7096 12.4478C82.7096 11.5093 82.2419 10.918 81.4977 10.918C80.7496 10.918 80.2946 11.4966 80.2946 12.4439Z" fill="white"/>
<path d="M87.2584 12.4439C87.2301 12.1479 87.264 11.8494 87.3578 11.5673C87.4516 11.2852 87.6034 11.0259 87.8033 10.8059C88.0033 10.5859 88.247 10.4102 88.5188 10.2899C88.7907 10.1696 89.0847 10.1075 89.382 10.1075C89.6792 10.1075 89.9732 10.1696 90.2451 10.2899C90.5169 10.4102 90.7606 10.5859 90.9606 10.8059C91.1605 11.0259 91.3123 11.2852 91.4061 11.5673C91.5 11.8494 91.5338 12.1479 91.5055 12.4439C91.5343 12.7401 91.5009 13.0391 91.4073 13.3216C91.3137 13.6041 91.162 13.8639 90.962 14.0843C90.7621 14.3048 90.5182 14.4809 90.246 14.6014C89.9739 14.722 89.6796 14.7842 89.382 14.7842C89.0843 14.7842 88.79 14.722 88.5179 14.6014C88.2458 14.4809 88.0019 14.3048 87.8019 14.0843C87.6019 13.8639 87.4502 13.6041 87.3566 13.3216C87.263 13.0391 87.2296 12.7401 87.2584 12.4439ZM90.5914 12.4439C90.5914 11.4678 90.1529 10.897 89.3834 10.897C88.611 10.897 88.1764 11.4678 88.1764 12.4439C88.1764 13.4278 88.611 13.9942 89.3834 13.9942C90.153 13.9942 90.5914 13.4238 90.5914 12.4439Z" fill="white"/>
<path d="M92.6979 10.1943H93.5533V10.9097H93.6198C93.7324 10.6528 93.9224 10.4374 94.1633 10.2936C94.4042 10.1498 94.6839 10.0847 94.9635 10.1074C95.1826 10.0909 95.4026 10.124 95.6072 10.2041C95.8118 10.2842 95.9958 10.4093 96.1454 10.5701C96.2951 10.731 96.4067 10.9234 96.4719 11.1333C96.5371 11.3431 96.5543 11.5649 96.5221 11.7822V14.6972H95.6334V12.0054C95.6334 11.2818 95.319 10.9219 94.6618 10.9219C94.513 10.915 94.3645 10.9403 94.2264 10.9961C94.0884 11.0519 93.964 11.137 93.8619 11.2453C93.7598 11.3537 93.6823 11.4829 93.6348 11.624C93.5872 11.7652 93.5708 11.9149 93.5865 12.063V14.6973H92.6979V10.1943Z" fill="white"/>
<path d="M101.544 9.07325V10.2149H102.519V10.9634H101.544V13.2788C101.544 13.7505 101.738 13.957 102.18 13.957C102.294 13.9567 102.407 13.9498 102.519 13.9365V14.6768C102.36 14.7053 102.198 14.7205 102.036 14.7222C101.047 14.7222 100.654 14.3745 100.654 13.5064V10.9634H99.9391V10.2148H100.654V9.07325H101.544Z" fill="white"/>
<path d="M103.733 8.43652H104.614V10.918H104.684C104.802 10.6587 104.998 10.4421 105.243 10.2977C105.489 10.1534 105.773 10.0883 106.057 10.1113C106.275 10.0995 106.493 10.1359 106.695 10.2179C106.898 10.2999 107.079 10.4256 107.227 10.586C107.376 10.7463 107.486 10.9373 107.552 11.1455C107.618 11.3536 107.637 11.5737 107.608 11.79V14.6973H106.718V12.0093C106.718 11.29 106.383 10.9258 105.756 10.9258C105.603 10.9132 105.449 10.9342 105.305 10.9873C105.162 11.0404 105.031 11.1242 104.923 11.2329C104.815 11.3417 104.732 11.4727 104.68 11.6168C104.628 11.761 104.608 11.9147 104.622 12.0674V14.6973H103.733L103.733 8.43652Z" fill="white"/>
<path d="M112.79 13.4815C112.669 13.893 112.407 14.249 112.051 14.4871C111.694 14.7253 111.265 14.8304 110.839 14.7842C110.542 14.792 110.247 14.7352 109.975 14.6177C109.702 14.5001 109.458 14.3247 109.26 14.1036C109.063 13.8824 108.915 13.6209 108.828 13.3371C108.742 13.0532 108.718 12.754 108.758 12.46C108.719 12.1651 108.743 11.8652 108.83 11.5805C108.916 11.2958 109.063 11.033 109.26 10.81C109.457 10.5869 109.699 10.4087 109.971 10.2875C110.243 10.1663 110.537 10.1049 110.835 10.1074C112.088 10.1074 112.843 10.9634 112.843 12.3774V12.6875H109.664V12.7373C109.65 12.9026 109.671 13.0689 109.725 13.2256C109.779 13.3824 109.865 13.5261 109.978 13.6476C110.091 13.769 110.228 13.8655 110.38 13.9309C110.533 13.9963 110.697 14.0292 110.863 14.0273C111.075 14.0528 111.291 14.0146 111.482 13.9174C111.672 13.8202 111.83 13.6684 111.934 13.4814L112.79 13.4815ZM109.664 12.0303H111.938C111.949 11.8792 111.929 11.7274 111.878 11.5846C111.827 11.4419 111.747 11.3114 111.642 11.2016C111.538 11.0917 111.412 11.0049 111.272 10.9467C111.132 10.8886 110.981 10.8603 110.83 10.8638C110.676 10.8619 110.523 10.8907 110.381 10.9487C110.239 11.0066 110.109 11.0925 110.001 11.2012C109.892 11.3099 109.806 11.4393 109.748 11.5816C109.69 11.724 109.662 11.8766 109.664 12.0303Z" fill="white"/>
</g>
<defs>
<clipPath id="clip0_2065_3092">
<rect width="135" height="40" fill="white"/>
</clipPath>
</defs>
</svg>
