<svg width="16" height="16" viewBox="0 0 16 16" fill="none" xmlns="http://www.w3.org/2000/svg">
<g clip-path="url(#clip0_1_1438)">
<mask id="mask0_1_1438" style="mask-type:luminance" maskUnits="userSpaceOnUse" x="0" y="0" width="16" height="16">
<rect width="16" height="16" fill="white"/>
</mask>
<g mask="url(#mask0_1_1438)">
<path fill-rule="evenodd" clip-rule="evenodd" d="M0 0H16V16H0V0Z" fill="#E31D1C"/>
<path d="M16 14.667V16H0V14.667H16ZM16 13.333H0V12H16V13.333ZM16 10.667H0V9.33301H16V10.667ZM16 8H0V6.66699H16V8ZM16 5.33301H0V4H16V5.33301ZM16 2.66699H0V1.33301H16V2.66699Z" fill="#F7FCFF"/>
<rect width="9" height="9.33333" fill="#2E42A5"/>
<path d="M7.81073 1.46777H8.33514L7.92303 2.02246L8.08221 2.89844L7.56952 2.40625L7.14569 2.80078H7.33514L6.92303 3.35547L7.06464 4.13379H7.36346L7.56952 3.41895L7.81073 4.13379H8.33514L7.92303 4.68945L8.08221 5.56543L7.56952 5.07324L7.14569 5.46777H7.33514L6.92303 6.02246L7.06464 6.80078H7.36346L7.56952 6.08594L7.81073 6.80078H8.33514L7.92303 7.35547L8.08221 8.23145L7.56952 7.73926L7.04022 8.23145L7.21893 7.35547L6.74823 6.80078H6.98065L6.56952 6.40625L6.14569 6.80078H6.33514L5.92303 7.35547L6.08221 8.23145L5.56952 7.73926L5.04022 8.23145L5.21893 7.35547L4.74823 6.80078H4.98065L4.56952 6.40625L4.14569 6.80078H4.33514L3.92303 7.35547L4.08221 8.23145L3.56952 7.73926L3.04022 8.23145L3.21893 7.35547L2.74823 6.80078H2.98065L2.56952 6.40625L2.14569 6.80078H2.33514L1.92303 7.35547L2.08221 8.23145L1.56952 7.73926L1.04022 8.23145L1.21893 7.35547L0.74823 6.80078H1.36346L1.56952 6.08594L1.81073 6.80078H2.05975L2.21893 6.02246L1.74823 5.46777H1.98065L1.56952 5.07324L1.04022 5.56543L1.21893 4.68945L0.74823 4.13379H1.36346L1.56952 3.41895L1.81073 4.13379H2.05975L2.21893 3.35547L1.74823 2.80078H1.98065L1.56952 2.40625L1.04022 2.89844L1.21893 2.02246L0.74823 1.46777H1.36346L1.56952 0.75293L1.81073 1.46777H2.33514L1.92303 2.02246L2.06464 2.80078H2.36346L2.56952 2.08594L2.81073 2.80078H3.05975L3.21893 2.02246L2.74823 1.46777H3.36346L3.56952 0.75293L3.81073 1.46777H4.33514L3.92303 2.02246L4.06464 2.80078H4.36346L4.56952 2.08594L4.81073 2.80078H5.05975L5.21893 2.02246L4.74823 1.46777H5.36346L5.56952 0.75293L5.81073 1.46777H6.33514L5.92303 2.02246L6.06464 2.80078H6.36346L6.56952 2.08594L6.81073 2.80078H7.05975L7.21893 2.02246L6.74823 1.46777H7.36346L7.56952 0.75293L7.81073 1.46777ZM5.14569 5.46777H5.33514L4.92303 6.02246L5.06464 6.80078H5.36346L5.56952 6.08594L5.81073 6.80078H6.05975L6.21893 6.02246L5.74823 5.46777H5.98065L5.56952 5.07324L5.14569 5.46777ZM3.14569 5.46777H3.33514L2.92303 6.02246L3.06464 6.80078H3.36346L3.56952 6.08594L3.81073 6.80078H4.05975L4.21893 6.02246L3.74823 5.46777H3.98065L3.56952 5.07324L3.14569 5.46777ZM6.14569 4.13379H6.33514L5.92303 4.68945L6.06464 5.46777H6.36346L6.56952 4.75293L6.81073 5.46777H7.05975L7.21893 4.68945L6.74823 4.13379H6.98065L6.56952 3.73926L6.14569 4.13379ZM2.14569 4.13379H2.33514L1.92303 4.68945L2.06464 5.46777H2.36346L2.56952 4.75293L2.81073 5.46777H3.05975L3.21893 4.68945L2.74823 4.13379H2.98065L2.56952 3.73926L2.14569 4.13379ZM4.14569 4.13379H4.33514L3.92303 4.68945L4.06464 5.46777H4.36346L4.56952 4.75293L4.81073 5.46777H5.05975L5.21893 4.68945L4.74823 4.13379H4.98065L4.56952 3.73926L4.14569 4.13379ZM3.14569 2.80078H3.33514L2.92303 3.35547L3.06464 4.13379H3.36346L3.56952 3.41895L3.81073 4.13379H4.05975L4.21893 3.35547L3.74823 2.80078H3.98065L3.56952 2.40625L3.14569 2.80078ZM5.14569 2.80078H5.33514L4.92303 3.35547L5.06464 4.13379H5.36346L5.56952 3.41895L5.81073 4.13379H6.05975L6.21893 3.35547L5.74823 2.80078H5.98065L5.56952 2.40625L5.14569 2.80078Z" fill="#F7FCFF"/>
</g>
</g>
<defs>
<clipPath id="clip0_1_1438">
<rect width="16" height="16" rx="8" fill="white"/>
</clipPath>
</defs>
</svg>
