<svg width="32" height="32" viewBox="0 0 32 32" fill="none" xmlns="http://www.w3.org/2000/svg">
<path d="M6.66665 1.3335H2.66665C2.31302 1.3335 1.97388 1.47397 1.72384 1.72402C1.47379 1.97407 1.33331 2.31321 1.33331 2.66683V29.3335C1.33331 29.6871 1.47379 30.0263 1.72384 30.2763C1.97388 30.5264 2.31302 30.6668 2.66665 30.6668H6.66665V1.3335Z" fill="#C4B5FD"/>
<path d="M9.33331 30.6668H22.6666V1.3335H9.33331V30.6668ZM16 25.3335C15.6464 25.3335 15.3072 25.193 15.0572 24.943C14.8071 24.6929 14.6666 24.3538 14.6666 24.0002C14.6666 23.6465 14.8071 23.3074 15.0572 23.0574C15.3072 22.8073 15.6464 22.6668 16 22.6668C16.3536 22.6668 16.6927 22.8073 16.9428 23.0574C17.1928 23.3074 17.3333 23.6465 17.3333 24.0002C17.3333 24.3538 17.1928 24.6929 16.9428 24.943C16.6927 25.193 16.3536 25.3335 16 25.3335ZM16 6.66683C16.3536 6.66683 16.6927 6.8073 16.9428 7.05735C17.1928 7.3074 17.3333 7.64654 17.3333 8.00016C17.3333 8.35379 17.1928 8.69292 16.9428 8.94297C16.6927 9.19302 16.3536 9.3335 16 9.3335C15.6464 9.3335 15.3072 9.19302 15.0572 8.94297C14.8071 8.69292 14.6666 8.35379 14.6666 8.00016C14.6666 7.64654 14.8071 7.3074 15.0572 7.05735C15.3072 6.8073 15.6464 6.66683 16 6.66683ZM16 14.6668C16.3536 14.6668 16.6927 14.8073 16.9428 15.0574C17.1928 15.3074 17.3333 15.6465 17.3333 16.0002C17.3333 16.3538 17.1928 16.6929 16.9428 16.943C16.6927 17.193 16.3536 17.3335 16 17.3335C15.6464 17.3335 15.3072 17.193 15.0572 16.943C14.8071 16.6929 14.6666 16.3538 14.6666 16.0002C14.6666 15.6465 14.8071 15.3074 15.0572 15.0574C15.3072 14.8073 15.6464 14.6668 16 14.6668Z" fill="#7C3AED"/>
<path d="M29.3333 1.3335H25.3333V30.6668H29.3333C29.6869 30.6668 30.0261 30.5264 30.2761 30.2763C30.5262 30.0263 30.6666 29.6871 30.6666 29.3335V2.66683C30.6666 2.31321 30.5262 1.97407 30.2761 1.72402C30.0261 1.47397 29.6869 1.3335 29.3333 1.3335Z" fill="#1DB5BE"/>
</svg>
