<svg width="32" height="32" viewBox="0 0 32 32" fill="none" xmlns="http://www.w3.org/2000/svg">
<path d="M28 31.9998H16C15.6464 31.9998 15.3072 31.8594 15.0572 31.6093C14.8071 31.3593 14.6667 31.0201 14.6667 30.6665V27.9998C14.6667 27.6462 14.8071 27.3071 15.0572 27.057C15.3072 26.807 15.6464 26.6665 16 26.6665H28C28.3536 26.6665 28.6928 26.807 28.9428 27.057C29.1928 27.3071 29.3333 27.6462 29.3333 27.9998V30.6665C29.3333 31.0201 29.1928 31.3593 28.9428 31.6093C28.6928 31.8594 28.3536 31.9998 28 31.9998Z" fill="#C4B5FD"/>
<path d="M28 0H3.99999C3.64637 0 3.30723 0.140475 3.05718 0.390523C2.80713 0.640572 2.66666 0.979711 2.66666 1.33333V4C2.66666 4.35362 2.80713 4.69276 3.05718 4.94281C3.30723 5.19286 3.64637 5.33333 3.99999 5.33333H28C28.3536 5.33333 28.6927 5.19286 28.9428 4.94281C29.1928 4.69276 29.3333 4.35362 29.3333 4V1.33333C29.3333 0.979711 29.1928 0.640572 28.9428 0.390523C28.6927 0.140475 28.3536 0 28 0Z" fill="#1DB5BE"/>
<path d="M28 8H3.99999C3.64637 8 3.30723 8.14047 3.05718 8.39052C2.80713 8.64057 2.66666 8.97971 2.66666 9.33333V22.6667C2.66666 23.0203 2.80713 23.3594 3.05718 23.6095C3.30723 23.8595 3.64637 24 3.99999 24H28C28.3536 24 28.6927 23.8595 28.9428 23.6095C29.1928 23.3594 29.3333 23.0203 29.3333 22.6667V9.33333C29.3333 8.97971 29.1928 8.64057 28.9428 8.39052C28.6927 8.14047 28.3536 8 28 8Z" fill="#7C3AED"/>
</svg>
