<svg width="32" height="32" viewBox="0 0 32 32" fill="none" xmlns="http://www.w3.org/2000/svg">
<path d="M30.6667 8.00016V2.66683C30.6667 2.31321 30.5262 1.97407 30.2762 1.72402C30.0261 1.47397 29.687 1.3335 29.3334 1.3335H2.66671C2.31309 1.3335 1.97395 1.47397 1.7239 1.72402C1.47385 1.97407 1.33337 2.31321 1.33337 2.66683V8.00016H30.6667Z" fill="#1DB5BE"/>
<path d="M1.33337 10.667V29.3337C1.33337 29.6873 1.47385 30.0264 1.7239 30.2765C1.97395 30.5265 2.31309 30.667 2.66671 30.667H9.33337V10.667H1.33337Z" fill="#C4B5FD"/>
<path d="M12 30.667H29.3333C29.687 30.667 30.0261 30.5265 30.2761 30.2765C30.5262 30.0264 30.6667 29.6873 30.6667 29.3337V10.667H12V30.667Z" fill="#7C3AED"/>
</svg>
