<svg width="114" height="31" viewBox="0 0 114 31" fill="none" xmlns="http://www.w3.org/2000/svg">
<path d="M0 6.47439C4.05562 6.44881 4.05562 6.44881 5.75931 6.44339C6.93418 6.43963 8.10903 6.43522 9.28387 6.4265C10.1396 6.42016 10.9954 6.41608 11.8512 6.41467C12.3039 6.41384 12.7566 6.41192 13.2093 6.40728C13.7159 6.40213 14.2224 6.40203 14.729 6.40233C14.9518 6.3989 14.9518 6.3989 15.1792 6.39541C16.2313 6.40199 17.1138 6.60352 17.8961 7.34688C18.5169 8.03034 18.5535 8.60279 18.5514 9.50876C18.5515 9.61973 18.5516 9.73069 18.5518 9.84503C18.5518 10.0797 18.5516 10.3143 18.5511 10.549C18.5504 10.9078 18.5511 11.2666 18.5519 11.6255C18.5518 11.8535 18.5516 12.0815 18.5514 12.3096C18.5516 12.4168 18.5519 12.5241 18.5522 12.6346C18.5516 12.7852 18.5516 12.7852 18.5509 12.9388C18.5508 13.0268 18.5507 13.1147 18.5506 13.2053C18.5345 13.4566 18.5345 13.4566 18.4621 13.7349C18.4441 13.8106 18.4261 13.8863 18.4076 13.9644C18.4495 14.0063 18.4914 14.0482 18.5345 14.0913C18.5521 14.4349 18.5616 14.775 18.5648 15.1188C18.5658 15.223 18.5668 15.3272 18.5679 15.4345C18.5696 15.6561 18.571 15.8776 18.572 16.0992C18.5742 16.435 18.5797 16.7706 18.5854 17.1063C18.6068 19.4187 18.6068 19.4187 17.8474 20.2555C17.2633 20.7845 16.6979 20.9786 15.9226 20.9771C15.7114 20.9776 15.7114 20.9776 15.4959 20.9781C15.2661 20.9768 15.2661 20.9768 15.0316 20.9754C14.7882 20.9754 14.7882 20.9754 14.5398 20.9755C14.0958 20.9756 13.6518 20.9741 13.2078 20.9723C12.7434 20.9707 12.279 20.9706 11.8146 20.9703C10.9356 20.9695 10.0567 20.9674 9.17773 20.9648C7.98968 20.9615 6.80163 20.9601 5.61358 20.9586C3.74238 20.9562 1.8712 20.9512 0 20.9465C0 16.1707 0 11.3949 0 6.47439Z" fill="#FDFDFD"/>
<path d="M26.7862 6.47439C30.81 6.45392 30.81 6.45392 32.5004 6.44959C33.666 6.44658 34.8317 6.44305 35.9974 6.43608C36.8464 6.431 37.6955 6.42774 38.5446 6.42661C38.9937 6.42595 39.4429 6.42441 39.8921 6.4207C40.3947 6.41658 40.8972 6.4165 41.3999 6.41674C41.5472 6.41491 41.6946 6.41309 41.8465 6.41121C42.8762 6.4164 43.799 6.56687 44.6146 7.23608C44.7127 7.36176 44.7127 7.36176 44.8129 7.48998C44.915 7.61566 44.915 7.61566 45.0192 7.74388C45.3322 8.19907 45.4791 8.53607 45.4866 9.0928C45.4886 9.20853 45.4906 9.32426 45.4927 9.44349C45.4934 9.5678 45.4941 9.69211 45.4948 9.82018C45.4959 9.94919 45.4971 10.0782 45.4982 10.2111C45.5001 10.4842 45.5012 10.7572 45.5017 11.0303C45.5032 11.4455 45.5094 11.8605 45.5158 12.2756C45.517 12.5415 45.518 12.8074 45.5186 13.0732C45.5211 13.1963 45.5235 13.3193 45.5261 13.446C45.5195 14.447 45.2298 15.1862 44.5273 15.9083C44.2168 16.0988 43.9179 16.2441 43.5851 16.3898C43.4307 16.4576 43.4307 16.4576 43.2733 16.5267C43.1949 16.5609 43.1164 16.5951 43.0356 16.6303C43.1905 16.8367 43.3453 17.0432 43.5002 17.2496C43.6359 17.4306 43.7715 17.6116 43.907 17.7927C44.2693 18.2765 44.6329 18.7591 44.9994 19.2397C45.0692 19.3316 45.139 19.4236 45.211 19.5184C45.3461 19.6963 45.4818 19.8738 45.6179 20.051C46.0824 20.6641 46.0824 20.6641 46.0824 20.9465C45.1843 21.0111 44.2887 21.0476 43.3882 21.0299C43.2399 21.0273 43.0917 21.0248 42.9389 21.0222C42.4366 20.9298 42.2087 20.752 41.8455 20.3991C41.7339 20.2013 41.6232 20.0028 41.5227 19.7992C41.2243 19.2581 40.8215 18.78 40.4491 18.2886C40.2969 18.0814 40.1451 17.874 39.9938 17.6662C39.8655 17.49 39.7369 17.3139 39.608 17.1381C39.5356 17.0066 39.5356 17.0066 39.4617 16.8725C39.2359 16.5912 39.2359 16.5912 38.8295 16.5644C38.6658 16.5633 38.502 16.5622 38.3332 16.561C38.1976 16.559 38.1976 16.559 38.0592 16.557C37.7603 16.5533 37.4616 16.5531 37.1628 16.5529C36.9555 16.551 36.7483 16.5489 36.5411 16.5466C35.9957 16.541 35.4504 16.5385 34.9051 16.5366C34.2507 16.5337 33.5963 16.527 32.942 16.521C31.948 16.5122 30.954 16.5082 29.9599 16.5033C29.9599 17.9696 29.9599 19.4359 29.9599 20.9465C28.9126 20.9465 27.8653 20.9465 26.7862 20.9465C26.7862 16.1707 26.7862 11.3949 26.7862 6.47439Z" fill="#FBFBFB"/>
<path d="M57.8493 6.43549C58.0544 6.43391 58.0544 6.43391 58.2636 6.43229C58.7157 6.42923 59.1677 6.42812 59.6198 6.42728C59.9346 6.42614 60.2495 6.42498 60.5643 6.4238C61.2245 6.42171 61.8848 6.42073 62.545 6.42037C63.3893 6.41968 64.2334 6.4149 65.0776 6.4091C65.7281 6.40532 66.3786 6.40441 67.0291 6.40428C67.3403 6.40375 67.6514 6.40217 67.9625 6.39952C68.3988 6.39609 68.8349 6.39671 69.2712 6.3983C69.3986 6.39642 69.526 6.39453 69.6572 6.39259C70.5469 6.40175 71.2399 6.60346 71.98 7.10913C72.482 7.63474 72.7578 8.17215 72.7569 8.90154C72.7572 9.06095 72.7572 9.06095 72.7574 9.22358C72.757 9.33973 72.7565 9.45588 72.7561 9.57555C72.7561 9.69819 72.7561 9.82083 72.7561 9.94718C72.756 10.3531 72.755 10.7591 72.754 11.165C72.7538 11.4463 72.7536 11.7275 72.7535 12.0087C72.753 12.7494 72.7518 13.4901 72.7504 14.2308C72.7491 14.9864 72.7485 15.742 72.7478 16.4976C72.7465 17.9806 72.7442 19.4636 72.7416 20.9465C71.6943 20.9465 70.647 20.9465 69.5679 20.9465C69.5679 19.4803 69.5679 18.014 69.5679 16.5033C65.63 16.5033 61.692 16.5033 57.6347 16.5033C57.6347 17.9696 57.6347 19.4359 57.6347 20.9465C56.5874 20.9465 55.5401 20.9465 54.461 20.9465C54.4524 19.3585 54.4454 17.7705 54.4413 16.1825C54.4393 15.4451 54.4366 14.7077 54.4323 13.9703C54.4281 13.2583 54.4259 12.5463 54.4249 11.8343C54.4242 11.563 54.4228 11.2917 54.4208 11.0204C54.418 10.6397 54.4176 10.259 54.4178 9.8782C54.4164 9.76671 54.415 9.65521 54.4136 9.54034C54.4177 8.71714 54.5346 7.9859 55.0789 7.33228C55.163 7.26388 55.2471 7.19548 55.3338 7.125C55.4173 7.05463 55.5007 6.98427 55.5867 6.91177C56.3172 6.41673 56.9932 6.43605 57.8493 6.43549Z" fill="#FDFDFD"/>
<path d="M95.2116 6.47439C98.3853 6.47439 98.3853 6.47439 99.3612 7.14087C99.5639 7.35175 99.7667 7.56276 99.9613 7.78113C100.303 8.14896 100.69 8.46212 101.075 8.78327C101.224 8.91075 101.373 9.03835 101.521 9.1661C101.887 9.47754 102.257 9.78215 102.63 10.0845C103.278 10.6105 103.907 11.1566 104.536 11.705C104.998 12.1064 105.463 12.5005 105.939 12.8853C106.499 13.3392 107.045 13.8077 107.589 14.2817C108.564 15.1318 109.562 15.949 110.572 16.7572C110.572 13.3639 110.572 9.97056 110.572 6.47439C111.703 6.47439 112.835 6.47439 114 6.47439C114 11.2502 114 16.026 114 20.9465C110.572 20.9465 110.572 20.9465 109.747 20.3832C109.553 20.1508 109.363 19.9154 109.176 19.6771C108.959 19.4886 108.736 19.3061 108.509 19.1296C107.938 18.6681 107.381 18.1923 106.827 17.7094C106.284 17.2353 105.738 16.7668 105.177 16.3129C104.531 15.79 103.905 15.2464 103.279 14.7003C102.71 14.2059 102.132 13.7267 101.546 13.2528C101.001 12.8022 100.468 12.3373 99.9357 11.8717C99.859 11.8048 99.7824 11.7378 99.7034 11.6689C99.6358 11.6097 99.5683 11.5505 99.4986 11.4895C99.2173 11.2503 98.9275 11.0213 98.6392 10.7906C98.5973 14.184 98.5554 17.5773 98.5122 21.0735C97.423 21.0735 96.3338 21.0735 95.2116 21.0735C95.2116 16.2558 95.2116 11.4381 95.2116 6.47439Z" fill="#F9F9F9"/>
<path d="M83.7862 25.6437C93.7567 25.6437 103.727 25.6437 114 25.6437C114 27.1937 114 28.7437 114 30.3408C113.756 30.5843 113.393 30.4833 113.069 30.4841C112.952 30.4837 112.836 30.4834 112.716 30.483C112.593 30.4831 112.47 30.4832 112.343 30.4833C111.928 30.4835 111.512 30.4828 111.097 30.4821C110.8 30.4821 110.504 30.4821 110.207 30.4822C109.4 30.4822 108.592 30.4815 107.785 30.4806C107.027 30.4799 106.27 30.4797 105.512 30.4796C104.011 30.4793 102.51 30.4785 101.009 30.4773C99.5506 30.4761 98.0921 30.4752 96.6337 30.4747C96.5439 30.4746 96.454 30.4746 96.3615 30.4746C95.9108 30.4744 95.4602 30.4743 95.0095 30.4741C91.2684 30.4728 87.5273 30.4705 83.7862 30.4677C83.7862 28.8758 83.7862 27.2838 83.7862 25.6437Z" fill="#227FC2"/>
<path d="M0 25.6437C9.92866 25.6437 19.8573 25.6437 30.0869 25.6437C30.0869 27.1937 30.0869 28.7437 30.0869 30.3408C20.1582 30.3408 10.2295 30.3408 0 30.3408C0 28.7907 0 27.2407 0 25.6437Z" fill="#227FC2"/>
<path d="M80.9933 6.47439C83.0042 6.47439 85.0151 6.47439 87.0869 6.47439C87.0869 11.2921 87.0869 16.1098 87.0869 21.0735C85.9976 21.0735 84.9084 21.0735 83.7862 21.0735C83.7862 17.345 83.7862 13.6165 83.7862 9.77506C82.8645 9.77506 81.9429 9.77506 80.9933 9.77506C80.9933 8.68583 80.9933 7.59661 80.9933 6.47439Z" fill="#F9F9F9"/>
<path d="M57.6347 9.52116C61.5727 9.52116 65.5106 9.52116 69.5679 9.52116C69.5679 10.8617 69.5679 12.2023 69.5679 13.5835C65.63 13.5835 61.692 13.5835 57.6347 13.5835C57.6347 12.2429 57.6347 10.9024 57.6347 9.52116Z" fill="#0A0D14"/>
<path d="M30.0869 9.52116C34.0667 9.52116 38.0465 9.52116 42.147 9.52116C42.147 10.8198 42.147 12.1185 42.147 13.4566C38.1671 13.4566 34.1873 13.4566 30.0869 13.4566C30.0869 12.1579 30.0869 10.8592 30.0869 9.52116Z" fill="#0A0D14"/>
<path d="M3.17372 15.1069C7.19546 15.1069 11.2172 15.1069 15.3608 15.1069C15.3608 16.0704 15.3608 17.034 15.3608 18.0267C11.3391 18.0267 7.31733 18.0267 3.17372 18.0267C3.17372 17.0632 3.17372 16.0996 3.17372 15.1069Z" fill="#0A0D14"/>
<path d="M3.17372 9.52116C7.19546 9.52116 11.2172 9.52116 15.3608 9.52116C15.3608 10.4009 15.3608 11.2807 15.3608 12.1871C11.3391 12.1871 7.31733 12.1871 3.17372 12.1871C3.17372 11.3073 3.17372 10.4276 3.17372 9.52116Z" fill="#0A0D14"/>
<path d="M50.1448 25.5167C50.8439 25.501 50.8439 25.501 51.5571 25.485C51.7026 25.4803 51.8481 25.4757 51.998 25.471C52.7759 25.4625 53.242 25.492 53.8263 26.0245C54.0802 26.4053 54.0802 26.4053 54.0564 26.8338C53.9571 27.2769 53.8298 27.5594 53.5724 27.9287C53.6562 28.0125 53.74 28.0963 53.8263 28.1826C54.112 28.6112 54.1554 28.8322 54.1308 29.3336C54.0508 29.7217 53.8514 29.943 53.5724 30.2138C53.2345 30.3828 52.9773 30.3551 52.5994 30.3532C52.4712 30.3528 52.343 30.3525 52.2108 30.3522C52.0475 30.351 51.8841 30.3499 51.7158 30.3487C50.9381 30.3448 50.9381 30.3448 50.1448 30.3408C50.1448 28.7488 50.1448 27.1569 50.1448 25.5167Z" fill="#F4F4F4"/>
<path d="M45.9555 25.5167C46.3522 25.7071 46.3522 25.7071 46.5902 26.0245C46.7006 26.657 46.7006 26.657 46.5902 27.0401C46.3609 27.3182 46.1324 27.4682 45.8285 27.6748C45.7447 27.7586 45.6609 27.8424 45.5746 27.9287C45.7841 28.1801 45.9935 28.4314 46.2094 28.6904C46.335 28.4391 46.4607 28.1877 46.5902 27.9287C47.1932 28.0398 47.1932 28.0398 47.4788 28.1826C47.3361 28.5599 47.1966 28.8598 46.971 29.1982C47.0037 29.6874 47.2956 29.9805 47.6058 30.3408C47.426 30.3442 47.2461 30.3467 47.0663 30.3487C46.9661 30.3502 46.866 30.3516 46.7628 30.3532C46.4633 30.3408 46.4633 30.3408 46.189 30.2693C45.9432 30.1864 45.9432 30.1864 45.6778 30.3328C45.172 30.5239 44.7118 30.5624 44.1782 30.4677C43.7885 30.2498 43.4921 29.9842 43.2895 29.5791C43.2201 29.1843 43.2053 28.8295 43.2895 28.4365C43.5463 28.1201 43.8378 27.8963 44.1782 27.6748C44.1582 27.6028 44.1382 27.5308 44.1177 27.4566C44.0071 26.9746 43.9757 26.5146 44.0512 26.0245C44.5241 25.3783 45.219 25.4008 45.9555 25.5167Z" fill="#F4F4F4"/>
<path d="M83.7862 0C84.8754 0 85.9646 0 87.0869 0C87.0869 1.08922 87.0869 2.17844 87.0869 3.30067C85.9976 3.30067 84.9084 3.30067 83.7862 3.30067C83.7862 2.21145 83.7862 1.12223 83.7862 0Z" fill="#227FC2"/>
<path d="M70.8692 26.9369C71.2681 27.1999 71.4833 27.3882 71.7261 27.8018C71.768 28.1788 71.8098 28.5559 71.853 28.9443C70.9733 28.9443 70.0935 28.9443 69.1871 28.9443C69.5911 29.5789 69.5911 29.5789 69.9488 29.6455C70.0326 29.6393 70.1163 29.6331 70.2027 29.6267C70.2907 29.6214 70.3788 29.6162 70.4695 29.6108C70.7228 29.5826 70.7228 29.5826 71.012 29.4997C71.08 29.484 71.1481 29.4683 71.2183 29.4521C71.302 29.5359 71.3858 29.6197 71.4722 29.706C71.4563 29.9599 71.4563 29.9599 71.3452 30.2138C70.7586 30.5876 70.1113 30.5614 69.441 30.4677C68.8853 30.2204 68.5184 29.8976 68.2984 29.3252C68.2201 28.7333 68.1595 28.0917 68.4229 27.5419C69.0833 26.7211 69.9047 26.5846 70.8692 26.9369Z" fill="#F1F1F1"/>
<path d="M64.2361 26.7862C64.5712 26.7862 64.9064 26.7862 65.2517 26.7862C65.2517 26.9119 65.2517 27.0376 65.2517 27.167C65.3355 27.1042 65.4192 27.0414 65.5056 26.9766C65.9742 26.7423 66.3872 26.6624 66.902 26.7862C67.2486 26.9464 67.2486 26.9464 67.5368 27.294C67.6168 27.8139 67.5962 28.3247 67.5764 28.8491C67.5736 28.9921 67.5707 29.1352 67.5677 29.2825C67.5603 29.6354 67.5498 29.988 67.5368 30.3408C67.2435 30.3408 66.9502 30.3408 66.6481 30.3408C66.6449 30.2684 66.6417 30.196 66.6385 30.1214C66.6238 29.7951 66.6082 29.4689 66.5926 29.1427C66.5876 29.0287 66.5826 28.9147 66.5774 28.7973C66.5721 28.6889 66.5668 28.5805 66.5613 28.4688C66.5567 28.3684 66.552 28.268 66.5472 28.1646C66.5458 27.927 66.5458 27.927 66.3942 27.8018C65.9499 27.7806 65.9499 27.7806 65.5056 27.8018C65.3089 27.9985 65.3511 28.1953 65.3384 28.4688C65.3331 28.5772 65.3278 28.6856 65.3223 28.7973C65.3173 28.9113 65.3124 29.0252 65.3072 29.1427C65.3017 29.2572 65.2962 29.3716 65.2906 29.4896C65.2771 29.7733 65.2641 30.057 65.2517 30.3408C64.9165 30.3408 64.5814 30.3408 64.2361 30.3408C64.2361 29.1678 64.2361 27.9947 64.2361 26.7862Z" fill="#EEEEEE"/>
<path d="M54.8419 26.9131C55.1351 26.9131 55.4284 26.9131 55.7305 26.9131C55.7337 26.9855 55.7369 27.0579 55.7401 27.1325C55.7548 27.4588 55.7704 27.785 55.786 28.1112C55.791 28.2252 55.796 28.3392 55.8012 28.4566C55.8065 28.565 55.8118 28.6734 55.8173 28.7851C55.8219 28.8855 55.8266 28.9859 55.8314 29.0893C55.8328 29.3269 55.8328 29.3269 55.9844 29.4521C56.5748 29.4909 56.5748 29.4909 57.1269 29.3252C57.1688 28.5292 57.2107 27.7332 57.2539 26.9131C57.5471 26.9131 57.8404 26.9131 58.1425 26.9131C58.1425 28.0443 58.1425 29.1754 58.1425 30.3408C57.8493 30.3408 57.556 30.3408 57.2539 30.3408C57.212 30.257 57.1701 30.1732 57.1269 30.0869C57.0432 30.1497 56.9594 30.2125 56.873 30.2773C56.3539 30.5368 56.0551 30.5228 55.4766 30.4677C55.0658 30.2465 54.9912 30.1539 54.8419 29.706C54.8315 29.4902 54.8282 29.274 54.8295 29.0579C54.8299 28.9331 54.8303 28.8083 54.8307 28.6798C54.8318 28.5497 54.8328 28.4197 54.8339 28.2858C54.8345 28.1543 54.8351 28.0228 54.8357 27.8873C54.8372 27.5626 54.8393 27.2379 54.8419 26.9131Z" fill="#F7F7F7"/>
<path d="M37.069 25.5167C38.3258 25.5167 39.5826 25.5167 40.8775 25.5167C40.8775 25.7681 40.8775 26.0194 40.8775 26.2784C40.4167 26.2784 39.9559 26.2784 39.4811 26.2784C39.4811 27.6609 39.4811 29.0433 39.4811 30.4677C39.1459 30.4677 38.8108 30.4677 38.4655 30.4677C38.4655 29.0852 38.4655 27.7028 38.4655 26.2784C38.0047 26.2784 37.5438 26.2784 37.069 26.2784C37.069 26.027 37.069 25.7757 37.069 25.5167Z" fill="#F7F7F7"/>
<path d="M77.8196 26.7862C78.2163 26.9766 78.2163 26.9766 78.4543 27.167C78.4125 27.3765 78.3706 27.586 78.3274 27.8018C78.2436 27.7808 78.1598 27.7599 78.0735 27.7383C77.5999 27.6594 77.1571 27.6667 76.6771 27.6748C76.6771 27.7586 76.6771 27.8424 76.6771 27.9287C76.7628 27.9533 76.8486 27.9778 76.9369 28.0031C77.0501 28.0362 77.1634 28.0692 77.2801 28.1033C77.392 28.1357 77.5039 28.1681 77.6193 28.2015C78.1495 28.3766 78.3917 28.4695 78.7082 28.9443C78.6899 29.4494 78.6582 29.7387 78.3353 30.1345C77.7569 30.5902 77.1351 30.5448 76.4232 30.4677C76.1095 30.3314 75.9231 30.1862 75.6615 29.9599C75.7453 29.7504 75.829 29.541 75.9154 29.3252C75.9992 29.3671 76.0829 29.409 76.1693 29.4521C76.6594 29.6155 77.0505 29.5965 77.5657 29.5791C77.5657 29.4534 77.5657 29.3277 77.5657 29.1982C77.4233 29.168 77.4233 29.168 77.2781 29.1372C76.2676 28.8978 76.2676 28.8978 75.8202 28.5317C75.6007 28.049 75.624 27.7962 75.7884 27.294C76.3792 26.7032 77.0276 26.6715 77.8196 26.7862Z" fill="#EFEFEF"/>
<path d="M61.0792 26.8735C61.2894 26.962 61.494 27.0633 61.6971 27.167C61.6133 27.3765 61.5295 27.586 61.4432 27.8018C61.3568 27.7808 61.2704 27.7599 61.1814 27.7383C60.7556 27.6658 60.351 27.6664 59.9198 27.6748C59.8779 27.8005 59.836 27.9262 59.7929 28.0557C59.8772 28.0696 59.9614 28.0835 60.0483 28.0978C61.1984 28.3044 61.1984 28.3044 61.6971 28.6904C61.8805 29.0571 61.8719 29.2993 61.8241 29.706C61.4675 30.1282 61.1943 30.4419 60.6319 30.498C59.8378 30.5186 59.3852 30.4856 58.7773 29.9599C58.8611 29.7504 58.9449 29.541 59.0312 29.3252C59.1595 29.3671 59.2878 29.409 59.42 29.4521C59.8887 29.5879 60.32 29.599 60.8085 29.5791C60.8504 29.4534 60.8923 29.3277 60.9354 29.1982C60.8207 29.1766 60.706 29.155 60.5878 29.1328C60.4381 29.102 60.2883 29.0712 60.134 29.0395C59.9853 29.0101 59.8365 28.9806 59.6833 28.9503C59.2458 28.8042 59.1173 28.7112 58.9042 28.3096C58.8328 27.8732 58.8328 27.8732 58.9042 27.4209C59.5063 26.6954 60.1879 26.5862 61.0792 26.8735Z" fill="#F0F0F0"/>
<path d="M74.265 26.7862C74.7252 26.9766 74.7252 26.9766 75.0267 27.167C74.9871 27.413 74.9871 27.413 74.8998 27.6748C74.7741 27.7167 74.6484 27.7586 74.5189 27.8018C74.4351 27.7599 74.3514 27.718 74.265 27.6748C74.0907 27.6661 73.9159 27.6641 73.7414 27.6669C73.579 27.6695 73.4167 27.6721 73.2494 27.6748C73.2913 27.8005 73.3332 27.9262 73.3764 28.0557C73.6231 28.1395 73.6231 28.1395 73.9159 28.1747C74.4497 28.2811 74.7969 28.38 75.1537 28.8174C75.2278 29.2419 75.2605 29.4364 75.1537 29.833C74.8082 30.2811 74.6158 30.4297 74.0617 30.5237C73.2589 30.558 72.759 30.4236 72.1069 29.9599C72.2326 29.7504 72.3583 29.541 72.4877 29.3252C72.5715 29.3671 72.6553 29.409 72.7416 29.4521C73.2318 29.6155 73.6229 29.5965 74.1381 29.5791C74.18 29.4953 74.2219 29.4115 74.265 29.3252C74.161 29.2959 74.0569 29.2666 73.9496 29.2364C72.8445 28.902 72.8445 28.902 72.3846 28.5238C72.175 28.0494 72.2085 27.7867 72.3608 27.294C72.8662 26.6582 73.5129 26.6818 74.265 26.7862Z" fill="#F0F0F0"/>
<path d="M35.4187 25.5167C35.7539 25.5167 36.089 25.5167 36.4343 25.5167C36.4343 27.1086 36.4343 28.7006 36.4343 30.3408C36.0992 30.3408 35.764 30.3408 35.4187 30.3408C35.4187 28.7488 35.4187 27.1569 35.4187 25.5167Z" fill="#F9F9F9"/>
<path d="M62.4588 26.9131C62.752 26.9131 63.0453 26.9131 63.3474 26.9131C63.3474 28.0443 63.3474 29.1754 63.3474 30.3408C63.0542 30.3408 62.7609 30.3408 62.4588 30.3408C62.4588 29.2096 62.4588 28.0785 62.4588 26.9131Z" fill="#FAFAFA"/>
<path d="M51.1604 28.4365C51.4301 28.4297 51.6999 28.4248 51.9697 28.4207C52.1199 28.4177 52.2701 28.4148 52.4249 28.4117C52.8107 28.4365 52.8107 28.4365 53.0646 28.6904C52.9941 29.2687 52.9941 29.2687 52.8107 29.4521C52.5331 29.4613 52.2553 29.4627 51.9776 29.4601C51.7495 29.4583 51.7495 29.4583 51.5169 29.4566C51.3992 29.4551 51.2816 29.4536 51.1604 29.4521C51.1604 29.117 51.1604 28.7818 51.1604 28.4365Z" fill="#0A0D14"/>
<path d="M51.1604 26.4053C51.4089 26.3985 51.6576 26.3936 51.9062 26.3895C52.1138 26.3851 52.1138 26.3851 52.3257 26.3806C52.6837 26.4053 52.6837 26.4053 52.9376 26.6592C52.9614 26.9845 52.9614 26.9845 52.9376 27.294C52.8107 27.4209 52.8107 27.4209 52.4373 27.4333C52.2097 27.4311 52.2097 27.4311 51.9776 27.4289C51.7495 27.4272 51.7495 27.4272 51.5169 27.4254C51.3992 27.4239 51.2816 27.4225 51.1604 27.4209C51.1604 27.0858 51.1604 26.7506 51.1604 26.4053Z" fill="#0A0D14"/>
<path d="M44.559 28.3096C44.6428 28.3096 44.7266 28.3096 44.8129 28.3096C45.0043 28.5228 45.0043 28.5228 45.2096 28.8015C45.278 28.8928 45.3464 28.9841 45.4169 29.0782C45.5746 29.3252 45.5746 29.3252 45.5746 29.5791C45.2155 29.7586 44.9559 29.7465 44.559 29.706C44.3131 29.4918 44.3131 29.4918 44.1782 29.1982C44.2087 28.7704 44.2528 28.6158 44.559 28.3096Z" fill="#0A0D14"/>
<path d="M69.9964 27.5161C70.4566 27.5479 70.4566 27.5479 70.7025 27.7145C70.8374 27.9287 70.8374 27.9287 70.8374 28.3096C70.2928 28.3096 69.7482 28.3096 69.1871 28.3096C69.4894 27.5537 69.4894 27.5537 69.9964 27.5161Z" fill="#0A0D14"/>
<path d="M62.7127 25.3898C63.291 25.4603 63.291 25.4603 63.4744 25.6437C63.4982 25.9531 63.4982 25.9531 63.4744 26.2784C63.3906 26.3622 63.3068 26.446 63.2205 26.5323C62.8019 26.4904 62.6336 26.4532 62.3318 26.1514C62.3784 25.7789 62.4416 25.6609 62.7127 25.3898Z" fill="#E8E8E8"/>
<path d="M45.0668 26.1514C45.2763 26.1514 45.4857 26.1514 45.7016 26.1514C45.7968 26.4371 45.7968 26.4371 45.8285 26.7862C45.5984 27.0798 45.5984 27.0798 45.3207 27.294C45.2369 27.294 45.1531 27.294 45.0668 27.294C44.924 26.4371 44.924 26.4371 45.0668 26.1514Z" fill="#0A0D14"/>
</svg>
