<svg width="135" height="40" viewBox="0 0 135 40" fill="none" xmlns="http://www.w3.org/2000/svg">
<g clip-path="url(#clip0_2065_3102)">
<path d="M130 0H5C2.23858 0 0 2.23858 0 5V35C0 37.7614 2.23858 40 5 40H130C132.761 40 135 37.7614 135 35V5C135 2.23858 132.761 0 130 0Z" fill="black"/>
<path d="M130 0.7998C131.114 0.801086 132.181 1.24403 132.968 2.03145C133.756 2.81887 134.199 3.88646 134.2 5V35C134.199 36.1135 133.756 37.1811 132.968 37.9685C132.181 38.7559 131.114 39.1989 130 39.2002H5C3.88645 39.1989 2.81888 38.756 2.0315 37.9686C1.24412 37.1811 0.801231 36.1135 0.8 35V5C0.801212 3.88644 1.24409 2.81884 2.03148 2.03142C2.81886 1.244 3.88644 0.801065 5 0.7998H130ZM130 0H5C3.67511 0.0038781 2.40559 0.531908 1.46875 1.46875C0.531908 2.40559 0.0038781 3.67511 0 5L0 35C0.0038781 36.3249 0.531908 37.5944 1.46875 38.5312C2.40559 39.4681 3.67511 39.9961 5 40H130C131.325 39.9961 132.594 39.4681 133.531 38.5312C134.468 37.5944 134.996 36.3249 135 35V5C134.996 3.67511 134.468 2.40559 133.531 1.46875C132.594 0.531908 131.325 0.0038781 130 0Z" fill="#A6A6A6"/>
<path d="M47.4184 10.2429C47.4366 10.6098 47.3799 10.9766 47.2518 11.3209C47.1237 11.6653 46.9268 11.9799 46.6732 12.2458C46.389 12.5405 46.0457 12.772 45.6659 12.9249C45.2861 13.0779 44.8783 13.149 44.4691 13.1335C44.0573 13.1371 43.649 13.0585 43.268 12.9021C42.8871 12.7457 42.5412 12.5147 42.2508 12.2228C41.9604 11.9308 41.7313 11.5837 41.5769 11.202C41.4226 10.8202 41.3461 10.4114 41.352 9.99965C41.3462 9.58788 41.4227 9.1791 41.577 8.79732C41.7314 8.41554 41.9605 8.06846 42.2509 7.77647C42.5413 7.48447 42.8871 7.25346 43.268 7.097C43.649 6.94053 44.0573 6.86178 44.4691 6.86535C44.8925 6.86407 45.3116 6.94967 45.7006 7.11685C46.0619 7.26329 46.3834 7.493 46.6391 7.78725L46.1117 8.31505C45.9107 8.0785 45.6581 7.89129 45.3733 7.76786C45.0885 7.64442 44.7791 7.58807 44.4691 7.60315C44.157 7.60154 43.8478 7.66292 43.56 7.78363C43.2722 7.90435 43.0118 8.0819 42.7942 8.30566C42.5767 8.52942 42.4065 8.79478 42.2939 9.08586C42.1814 9.37694 42.1287 9.68774 42.1391 9.99965C42.1317 10.4668 42.2631 10.9257 42.5168 11.3181C42.7705 11.7105 43.135 12.0187 43.5641 12.2037C43.9932 12.3886 44.4676 12.442 44.927 12.357C45.3865 12.272 45.8104 12.0525 46.1449 11.7263C46.4528 11.3945 46.6313 10.9632 46.6478 10.5109H44.4691V9.79015H47.3764C47.4039 9.93949 47.4179 10.091 47.4184 10.2429Z" fill="white"/>
<path d="M52.0277 7.73695H49.2953V9.63925H51.7592V10.3601H49.2953V12.2624H52.0277V12.9997H48.5248V6.99965H52.0277V7.73695Z" fill="white"/>
<path d="M55.2787 12.9997H54.5072V7.73695H52.8314V6.99965H56.9545V7.73695H55.2787V12.9997Z" fill="white"/>
<path d="M59.9379 12.9997V6.99965H60.7084V12.9997H59.9379Z" fill="white"/>
<path d="M64.1283 12.9997H63.3568V7.73695H61.6811V6.99965H65.8041V7.73695H64.1283V12.9997Z" fill="white"/>
<path d="M73.6093 12.2243C73.0253 12.8065 72.2343 13.1335 71.4096 13.1335C70.5849 13.1335 69.7939 12.8065 69.2099 12.2243C68.921 11.9316 68.6939 11.5839 68.542 11.2017C68.3902 10.8196 68.3168 10.4108 68.3261 9.99965C68.3168 9.58854 68.3902 9.17974 68.542 8.79758C68.6939 8.41541 68.921 8.06768 69.2099 7.77505C69.4986 7.48632 69.8413 7.25735 70.2186 7.10125C70.5958 6.94515 71.0002 6.86499 71.4085 6.86535C71.8167 6.86571 72.2209 6.94659 72.5979 7.10336C72.9749 7.26013 73.3173 7.48971 73.6054 7.77895C73.8945 8.07081 74.1221 8.41776 74.2746 8.79923C74.4271 9.1807 74.5014 9.58892 74.4931 9.99965C74.5022 10.4107 74.4286 10.8195 74.2768 11.2016C74.125 11.5837 73.898 11.9315 73.6093 12.2243ZM69.7792 11.7219C70.2117 12.1536 70.7979 12.3962 71.4091 12.3962C72.0203 12.3962 72.6065 12.1536 73.039 11.7219C73.2608 11.4948 73.4343 11.2251 73.5489 10.9291C73.6636 10.6331 73.717 10.3169 73.706 9.99965C73.717 9.68241 73.6636 9.36624 73.5489 9.07023C73.4343 8.77422 73.2608 8.50453 73.039 8.27745C72.6065 7.84566 72.0203 7.60314 71.4091 7.60314C70.7979 7.60314 70.2117 7.84566 69.7792 8.27745C69.5577 8.50471 69.3845 8.77446 69.2701 9.07044C69.1556 9.36641 69.1022 9.6825 69.1132 9.99965C69.1022 10.3168 69.1556 10.6329 69.2701 10.9289C69.3845 11.2248 69.5577 11.4946 69.7792 11.7219Z" fill="white"/>
<path d="M75.5751 12.9997V6.99965H76.5136L79.4296 11.6672H79.4628L79.4296 10.5109V6.99965H80.2011V12.9997H79.3964L76.3456 8.10605H76.3124L76.3456 9.26235V12.9997H75.5751Z" fill="white"/>
<path d="M47.4184 10.2429C47.4366 10.6098 47.3799 10.9766 47.2518 11.3209C47.1237 11.6653 46.9268 11.9799 46.6732 12.2458C46.389 12.5405 46.0457 12.772 45.6659 12.9249C45.2861 13.0779 44.8783 13.149 44.4691 13.1335C44.0573 13.1371 43.649 13.0585 43.268 12.9021C42.8871 12.7457 42.5412 12.5147 42.2508 12.2228C41.9604 11.9308 41.7313 11.5837 41.5769 11.202C41.4226 10.8202 41.3461 10.4114 41.352 9.99965C41.3462 9.58788 41.4227 9.1791 41.577 8.79732C41.7314 8.41554 41.9605 8.06846 42.2509 7.77647C42.5413 7.48447 42.8871 7.25346 43.268 7.097C43.649 6.94053 44.0573 6.86178 44.4691 6.86535C44.8925 6.86407 45.3116 6.94967 45.7006 7.11685C46.0619 7.26329 46.3834 7.493 46.6391 7.78725L46.1117 8.31505C45.9107 8.0785 45.6581 7.89129 45.3733 7.76786C45.0885 7.64442 44.7791 7.58807 44.4691 7.60315C44.157 7.60154 43.8478 7.66292 43.56 7.78363C43.2722 7.90435 43.0118 8.0819 42.7942 8.30566C42.5767 8.52942 42.4065 8.79478 42.2939 9.08586C42.1814 9.37694 42.1287 9.68774 42.1391 9.99965C42.1317 10.4668 42.2631 10.9257 42.5168 11.3181C42.7705 11.7105 43.135 12.0187 43.5641 12.2037C43.9932 12.3886 44.4676 12.442 44.927 12.357C45.3865 12.272 45.8104 12.0525 46.1449 11.7263C46.4528 11.3945 46.6313 10.9632 46.6478 10.5109H44.4691V9.79015H47.3764C47.4039 9.93949 47.4179 10.091 47.4184 10.2429Z" stroke="white" stroke-width="0.2" stroke-miterlimit="10"/>
<path d="M52.0277 7.73695H49.2953V9.63925H51.7592V10.3601H49.2953V12.2624H52.0277V12.9997H48.5248V6.99965H52.0277V7.73695Z" stroke="white" stroke-width="0.2" stroke-miterlimit="10"/>
<path d="M55.2787 12.9997H54.5072V7.73695H52.8314V6.99965H56.9545V7.73695H55.2787V12.9997Z" stroke="white" stroke-width="0.2" stroke-miterlimit="10"/>
<path d="M59.9379 12.9997V6.99965H60.7084V12.9997H59.9379Z" stroke="white" stroke-width="0.2" stroke-miterlimit="10"/>
<path d="M64.1283 12.9997H63.3568V7.73695H61.6811V6.99965H65.8041V7.73695H64.1283V12.9997Z" stroke="white" stroke-width="0.2" stroke-miterlimit="10"/>
<path d="M73.6093 12.2243C73.0253 12.8065 72.2343 13.1335 71.4096 13.1335C70.5849 13.1335 69.7939 12.8065 69.2099 12.2243C68.921 11.9316 68.6939 11.5839 68.542 11.2017C68.3902 10.8196 68.3168 10.4108 68.3261 9.99965C68.3168 9.58854 68.3902 9.17974 68.542 8.79758C68.6939 8.41541 68.921 8.06768 69.2099 7.77505C69.4986 7.48632 69.8413 7.25735 70.2186 7.10125C70.5958 6.94515 71.0002 6.86499 71.4085 6.86535C71.8167 6.86571 72.2209 6.94659 72.5979 7.10336C72.9749 7.26013 73.3173 7.48971 73.6054 7.77895C73.8945 8.07081 74.1221 8.41776 74.2746 8.79923C74.4271 9.1807 74.5014 9.58892 74.4931 9.99965C74.5022 10.4107 74.4286 10.8195 74.2768 11.2016C74.125 11.5837 73.898 11.9315 73.6093 12.2243ZM69.7792 11.7219C70.2117 12.1536 70.7979 12.3962 71.4091 12.3962C72.0203 12.3962 72.6065 12.1536 73.039 11.7219C73.2608 11.4948 73.4343 11.2251 73.5489 10.9291C73.6636 10.6331 73.717 10.3169 73.706 9.99965C73.717 9.68241 73.6636 9.36624 73.5489 9.07023C73.4343 8.77422 73.2608 8.50453 73.039 8.27745C72.6065 7.84566 72.0203 7.60314 71.4091 7.60314C70.7979 7.60314 70.2117 7.84566 69.7792 8.27745C69.5577 8.50471 69.3845 8.77446 69.2701 9.07044C69.1556 9.36641 69.1022 9.6825 69.1132 9.99965C69.1022 10.3168 69.1556 10.6329 69.2701 10.9289C69.3845 11.2248 69.5577 11.4946 69.7792 11.7219Z" stroke="white" stroke-width="0.2" stroke-miterlimit="10"/>
<path d="M75.5751 12.9997V6.99965H76.5136L79.4296 11.6672H79.4628L79.4296 10.5109V6.99965H80.2011V12.9997H79.3964L76.3456 8.10605H76.3124L76.3456 9.26235V12.9997H75.5751Z" stroke="white" stroke-width="0.2" stroke-miterlimit="10"/>
<path d="M68.1358 21.751C67.2953 21.7542 66.4746 22.0063 65.7773 22.4756C65.08 22.9449 64.5373 23.6102 64.2179 24.3877C63.8984 25.1651 63.8165 26.0198 63.9825 26.8438C64.1484 27.6677 64.5547 28.4241 65.1502 29.0173C65.7457 29.6105 66.5035 30.014 67.3281 30.1768C68.1527 30.3396 69.0071 30.2544 69.7833 29.932C70.5595 29.6096 71.2228 29.0644 71.6895 28.3654C72.1561 27.6663 72.4051 26.8446 72.4051 26.0041C72.4134 25.4419 72.3085 24.8838 72.0966 24.363C71.8848 23.8422 71.5704 23.3693 71.1721 22.9725C70.7737 22.5757 70.2997 22.2631 69.7781 22.0532C69.2564 21.8434 68.698 21.7406 68.1358 21.751ZM68.1358 28.5818C67.6182 28.6187 67.1014 28.4989 66.6528 28.238C66.2043 27.9771 65.8446 27.5872 65.6207 27.1191C65.3968 26.6509 65.3191 26.1262 65.3976 25.6132C65.4761 25.1002 65.7072 24.6228 66.0608 24.243C66.4145 23.8633 66.8743 23.5988 67.3804 23.484C67.8865 23.3692 68.4154 23.4094 68.8983 23.5994C69.3812 23.7894 69.7957 24.1204 70.0878 24.5493C70.3799 24.9782 70.5362 25.4851 70.5362 26.0041C70.5519 26.3319 70.5019 26.6596 70.389 26.9678C70.2762 27.276 70.1028 27.5585 69.8792 27.7987C69.6555 28.0389 69.386 28.2319 69.0866 28.3664C68.7872 28.5009 68.4639 28.5741 68.1358 28.5818ZM58.8224 21.751C57.9819 21.7541 57.1612 22.0063 56.4638 22.4755C55.7665 22.9448 55.2239 23.6102 54.9044 24.3876C54.585 25.1651 54.503 26.0197 54.6689 26.8437C54.8349 27.6677 55.2412 28.424 55.8367 29.0173C56.4321 29.6105 57.19 30.0139 58.0146 30.1768C58.8392 30.3396 59.6936 30.2544 60.4698 29.932C61.246 29.6096 61.9093 29.0645 62.376 28.3654C62.8426 27.6663 63.0916 26.8446 63.0916 26.0041C63.0999 25.4419 62.995 24.8838 62.7831 24.363C62.5713 23.8422 62.2569 23.3693 61.8586 22.9725C61.4603 22.5757 60.9862 22.2631 60.4646 22.0532C59.943 21.8434 59.3845 21.7406 58.8224 21.751ZM58.8224 28.5818C58.3048 28.6187 57.788 28.4989 57.3394 28.238C56.8909 27.9771 56.5312 27.5872 56.3073 27.1191C56.0834 26.6509 56.0057 26.1262 56.0842 25.6132C56.1627 25.1002 56.3938 24.6228 56.7474 24.243C57.1011 23.8633 57.5609 23.5988 58.067 23.484C58.573 23.3692 59.102 23.4094 59.5849 23.5994C60.0678 23.7894 60.4823 24.1204 60.7744 24.5493C61.0665 24.9782 61.2228 25.4851 61.2228 26.0041C61.2385 26.3319 61.1885 26.6596 61.0757 26.9678C60.9628 27.276 60.7895 27.5585 60.5658 27.7987C60.3421 28.0389 60.0726 28.232 59.7732 28.3664C59.4738 28.5009 59.1505 28.5741 58.8224 28.5818ZM47.7436 23.056V24.8603H52.0613C51.999 25.7066 51.6527 26.507 51.0785 27.1319C50.6458 27.5729 50.1255 27.9183 49.5511 28.1459C48.9767 28.3734 48.3609 28.478 47.7436 28.4529C46.4816 28.4358 45.277 27.9225 44.3906 27.024C43.5042 26.1255 43.0073 24.9141 43.0073 23.652C43.0073 22.3898 43.5042 21.1785 44.3906 20.28C45.277 19.3815 46.4816 18.8682 47.7436 18.8511C48.9558 18.8352 50.1253 19.2984 50.998 20.1399L52.2707 18.8672C51.6753 18.2777 50.9681 17.813 50.1907 17.5004C49.4134 17.1878 48.5814 17.0335 47.7436 17.0467C46.8681 17.0339 45.9988 17.1954 45.1862 17.5216C44.3737 17.8478 43.6341 18.3323 43.0104 18.9469C42.3868 19.5616 41.8916 20.294 41.5535 21.1018C41.2155 21.9095 41.0414 22.7764 41.0414 23.652C41.0414 24.5276 41.2155 25.3944 41.5535 26.2022C41.8916 27.0099 42.3868 27.7424 43.0104 28.357C43.6341 28.9716 44.3737 29.4561 45.1862 29.7824C45.9988 30.1086 46.8681 30.27 47.7436 30.2573C48.5991 30.2927 49.4523 30.1459 50.2467 29.8265C51.0411 29.5071 51.7584 29.0224 52.3512 28.4046C53.4036 27.2558 53.9646 25.7408 53.914 24.1837C53.9181 23.8055 53.8857 23.4279 53.8172 23.056H47.7436ZM93.0519 24.4575C92.7963 23.6871 92.3097 23.0141 91.6583 22.5299C91.0069 22.0457 90.2223 21.7737 89.4109 21.751C88.8644 21.7544 88.3243 21.8685 87.8232 22.0866C87.3222 22.3046 86.8705 22.622 86.4955 23.0195C86.1206 23.4171 85.8301 23.8865 85.6417 24.3995C85.4534 24.9125 85.371 25.4583 85.3995 26.0041C85.3872 26.5633 85.4877 27.1192 85.6951 27.6386C85.9024 28.1581 86.2123 28.6304 86.6063 29.0274C87.0003 29.4244 87.4703 29.738 87.9881 29.9493C88.506 30.1606 89.0611 30.2653 89.6204 30.2573C90.3211 30.2612 91.0117 30.091 91.6303 29.762C92.2489 29.433 92.7761 28.9555 93.1646 28.3724L91.7147 27.4058C91.4975 27.7665 91.1902 28.0646 90.8231 28.2707C90.4559 28.4769 90.0415 28.5841 89.6204 28.5818C89.1871 28.5983 88.7588 28.4843 88.3911 28.2545C88.0234 28.0247 87.7332 27.6897 87.5582 27.293L93.2453 24.9409L93.0519 24.4575ZM87.2522 25.8753C87.2322 25.5657 87.2741 25.2553 87.3755 24.9621C87.4769 24.6689 87.6357 24.399 87.8428 24.1679C88.0498 23.9369 88.3008 23.7495 88.5811 23.6166C88.8614 23.4838 89.1654 23.4082 89.4753 23.3943C89.798 23.373 90.1198 23.4473 90.4006 23.6077C90.6813 23.7681 90.9087 24.0077 91.0542 24.2965L87.2522 25.8753ZM82.6284 29.9995H84.4972V17.4979H82.6284V29.9995ZM79.5674 22.7015H79.503C79.2189 22.3928 78.8721 22.1483 78.486 21.9844C78.0998 21.8205 77.683 21.7409 77.2636 21.751C76.1669 21.7976 75.1306 22.2661 74.3711 23.0587C73.6116 23.8512 73.1876 24.9064 73.1876 26.0041C73.1876 27.1018 73.6116 28.1571 74.3711 28.9496C75.1306 29.7421 76.1669 30.2106 77.2636 30.2573C77.6847 30.2685 78.1031 30.1878 78.4899 30.0209C78.8766 29.854 79.2223 29.6048 79.503 29.2907H79.5674V29.9029C79.5674 31.5301 78.6975 32.4 77.2958 32.4C76.8287 32.3888 76.3754 32.2388 75.9939 31.9691C75.6123 31.6994 75.3196 31.3222 75.1532 30.8856L73.526 31.5623C73.8327 32.3089 74.3553 32.947 75.027 33.3948C75.6986 33.8425 76.4886 34.0796 77.2958 34.0755C79.4869 34.0755 81.3396 32.7867 81.3396 29.6451V22.0087H79.5674V22.7015ZM77.4248 28.5818C76.7789 28.527 76.177 28.2317 75.7384 27.7544C75.2999 27.277 75.0565 26.6524 75.0565 26.0041C75.0565 25.3559 75.2999 24.7312 75.7384 24.2539C76.177 23.7765 76.7789 23.4812 77.4248 23.4265C77.7462 23.4422 78.0611 23.5224 78.3508 23.6624C78.6404 23.8024 78.899 23.9993 79.111 24.2413C79.3229 24.4833 79.484 24.7656 79.5846 25.0712C79.6851 25.3768 79.7231 25.6996 79.6963 26.0202C79.7214 26.3388 79.682 26.6592 79.5805 26.9623C79.4789 27.2653 79.3173 27.5448 79.1052 27.7839C78.8931 28.0231 78.635 28.217 78.3463 28.3541C78.0576 28.4912 77.7442 28.5686 77.4248 28.5818ZM101.806 17.4981H97.3346V29.9995H99.2003V25.2631H101.806C102.334 25.292 102.862 25.213 103.358 25.031C103.854 24.849 104.308 24.5677 104.692 24.2043C105.076 23.8409 105.381 23.4031 105.59 22.9176C105.799 22.4321 105.907 21.9091 105.907 21.3806C105.907 20.852 105.799 20.329 105.59 19.8435C105.381 19.358 105.076 18.9202 104.692 18.5569C104.308 18.1935 103.854 17.9122 103.358 17.7302C102.862 17.5481 102.334 17.4691 101.806 17.4981ZM101.854 23.5233H99.2003V19.238H101.854C102.139 19.2321 102.423 19.2831 102.688 19.3881C102.953 19.4932 103.194 19.65 103.398 19.8496C103.602 20.0491 103.764 20.2873 103.874 20.5502C103.985 20.8131 104.042 21.0954 104.042 21.3806C104.042 21.6658 103.985 21.9481 103.874 22.211C103.764 22.4739 103.602 22.7121 103.398 22.9116C103.194 23.1112 102.953 23.2681 102.688 23.3731C102.423 23.4781 102.139 23.5292 101.854 23.5233ZM113.386 21.728C112.705 21.6882 112.027 21.8481 111.435 22.1881C110.844 22.5281 110.365 23.0334 110.056 23.6419L111.713 24.3335C111.877 24.0314 112.126 23.7839 112.429 23.621C112.732 23.4582 113.075 23.3872 113.418 23.4167C113.891 23.3705 114.363 23.5138 114.731 23.8153C115.099 24.1168 115.332 24.5518 115.38 25.025V25.1537C114.781 24.8353 114.112 24.6696 113.434 24.6712C111.649 24.6712 109.831 25.6523 109.831 27.4858C109.849 27.8722 109.943 28.2512 110.11 28.6002C110.277 28.9493 110.512 29.2614 110.801 29.5179C111.091 29.7744 111.429 29.9701 111.795 30.0935C112.162 30.2168 112.55 30.2653 112.935 30.236C113.405 30.2636 113.874 30.1648 114.292 29.9499C114.711 29.7349 115.064 29.4116 115.316 29.0137H115.38V29.9787H117.181V25.1859C117.181 22.9664 115.525 21.728 113.386 21.728ZM113.161 28.5794C112.549 28.5794 111.697 28.2739 111.697 27.5179C111.697 26.553 112.758 26.183 113.675 26.183C114.271 26.1671 114.859 26.3116 115.38 26.6012C115.311 27.1434 115.049 27.6425 114.641 28.0062C114.233 28.3698 113.707 28.5734 113.161 28.5794ZM123.743 22.0014L121.604 27.4214H121.54L119.32 22.0014H117.31L120.639 29.5766L118.741 33.7904H120.687L125.818 22.0014H123.743ZM106.936 29.9995H108.802V17.4981H106.936V29.9995Z" fill="white"/>
<path d="M10.4353 7.53842C10.1074 7.93049 9.94182 8.43312 9.97251 8.94332V31.0594C9.94173 31.5696 10.1073 32.0723 10.4353 32.4643L10.5093 32.5364L22.8983 20.1475V19.8552L10.5093 7.46582L10.4353 7.53842Z" fill="url(#paint0_linear_2065_3102)"/>
<path d="M27.0277 24.2787L22.8983 20.1473V19.855L27.0287 15.7246L27.1218 15.7777L32.0146 18.5578C33.4122 19.3518 33.4122 20.651 32.0146 21.4455L27.1218 24.2256L27.0277 24.2787Z" fill="url(#paint1_linear_2065_3102)"/>
<path d="M27.1218 24.2259L22.8983 20.002L10.4353 32.4649C10.7201 32.716 11.0837 32.8596 11.4633 32.8709C11.8428 32.8821 12.2143 32.7602 12.5134 32.5263L27.1218 24.2259Z" fill="url(#paint2_linear_2065_3102)"/>
<path d="M27.1218 15.7775L12.5134 7.47715C12.2143 7.24324 11.8428 7.12133 11.4633 7.13255C11.0837 7.14376 10.7201 7.28739 10.4353 7.53855L22.8983 20.0015L27.1218 15.7775Z" fill="url(#paint3_linear_2065_3102)"/>
<path opacity="0.2" d="M27.0287 24.1328L12.5134 32.3801C12.2258 32.599 11.8748 32.7185 11.5134 32.7204C11.152 32.7224 10.7997 32.6067 10.5098 32.3908L10.4353 32.4653L10.5093 32.5374L10.5098 32.5369C10.7997 32.7529 11.1519 32.8686 11.5134 32.8667C11.8749 32.8648 12.2259 32.7453 12.5134 32.5262L27.1218 24.2258L27.0287 24.1328Z" fill="black"/>
<path opacity="0.12" d="M10.4353 32.319C10.1074 31.9269 9.94185 31.4243 9.9725 30.9141V31.0602C9.94183 31.5704 10.1074 32.073 10.4353 32.4651L10.5098 32.3906L10.4353 32.319Z" fill="black"/>
<path opacity="0.12" d="M32.0146 21.2993L27.0287 24.1325L27.1218 24.2255L32.0146 21.4454C32.3024 21.3204 32.5515 21.1207 32.7358 20.8668C32.9202 20.6129 33.0332 20.3143 33.0629 20.002C33.001 20.2848 32.8741 20.5493 32.6921 20.7745C32.5101 20.9997 32.2782 21.1794 32.0146 21.2993Z" fill="black"/>
<path opacity="0.25" d="M12.5134 7.62334L32.0146 18.7033C32.2783 18.8232 32.5103 19.0029 32.6923 19.2282C32.8743 19.4535 33.0012 19.7182 33.0629 20.0011C33.0334 19.6887 32.9205 19.3899 32.7361 19.1359C32.5517 18.8819 32.3026 18.6821 32.0146 18.5572L12.5134 7.47724C11.1158 6.68314 9.9725 7.34274 9.9725 8.94354V9.08964C9.9725 7.48894 11.1158 6.82934 12.5134 7.62334Z" fill="white"/>
</g>
<defs>
<linearGradient id="paint0_linear_2065_3102" x1="21.7996" y1="8.71013" x2="5.01724" y2="25.4925" gradientUnits="userSpaceOnUse">
<stop stop-color="#00A0FF"/>
<stop offset="0.00657" stop-color="#00A1FF"/>
<stop offset="0.2601" stop-color="#00BEFF"/>
<stop offset="0.5122" stop-color="#00D2FF"/>
<stop offset="0.7604" stop-color="#00DFFF"/>
<stop offset="1" stop-color="#00E3FF"/>
</linearGradient>
<linearGradient id="paint1_linear_2065_3102" x1="33.8343" y1="20.0017" x2="9.63738" y2="20.0017" gradientUnits="userSpaceOnUse">
<stop stop-color="#FFE000"/>
<stop offset="0.4087" stop-color="#FFBD00"/>
<stop offset="0.7754" stop-color="#FFA500"/>
<stop offset="1" stop-color="#FF9C00"/>
</linearGradient>
<linearGradient id="paint2_linear_2065_3102" x1="24.8269" y1="22.2971" x2="2.06857" y2="45.0553" gradientUnits="userSpaceOnUse">
<stop stop-color="#FF3A44"/>
<stop offset="1" stop-color="#C31162"/>
</linearGradient>
<linearGradient id="paint3_linear_2065_3102" x1="7.29723" y1="0.176725" x2="17.4598" y2="10.3392" gradientUnits="userSpaceOnUse">
<stop stop-color="#32A071"/>
<stop offset="0.0685" stop-color="#2DA771"/>
<stop offset="0.4762" stop-color="#15CF74"/>
<stop offset="0.8009" stop-color="#06E775"/>
<stop offset="1" stop-color="#00F076"/>
</linearGradient>
<clipPath id="clip0_2065_3102">
<rect width="135" height="40.0002" fill="white"/>
</clipPath>
</defs>
</svg>
