<svg width="48" height="48" viewBox="0 0 48 48" fill="none" xmlns="http://www.w3.org/2000/svg">
<path d="M39.9999 14H35.6973C34.7023 14 34 12.995 34 12C34 8.68629 31.3137 6 28 6C24.6863 6 22 8.68629 22 12C22 12.995 21.2977 14 20.3027 14H16C14.8954 14 14 14.8954 14 16V20.3027C14 21.2977 12.995 22 12 22C8.68629 22 6 24.6863 6 28C6 31.3137 8.68629 34 12 34C12.995 34 14 34.7022 14 35.6973V40C14 41.1046 14.8954 42 16 42L40 42.0001C41.1046 42.0001 42 41.1045 42 39.9999V35.6973C42 34.7023 40.995 34 40 34C36.6863 34 34 31.3137 34 28C34 24.6863 36.6863 22 40 22C40.995 22 42 21.2977 42 20.3027L42.0001 16C42.0001 14.8954 41.1045 14 39.9999 14Z" fill="#227FC2" stroke="#227FC2" stroke-width="2" stroke-linecap="round" stroke-linejoin="round"/>
</svg>
