<svg width="16" height="16" viewBox="0 0 16 16" fill="none" xmlns="http://www.w3.org/2000/svg">
<g clip-path="url(#clip0_1_1435)">
<path d="M0.37775 5.56513C0.132688 6.33288 -3.12445e-05 7.15079 5.51734e-09 7.99982C-3.12445e-05 8.84888 0.132719 9.66685 0.377781 10.4346L8 10.7825L15.6222 10.4347C15.8673 9.66688 16 8.84888 16 7.99988C16 7.15082 15.8673 6.33288 15.6222 5.5651L8 5.21729L0.37775 5.56513Z" fill="#F0F0F0"/>
<path d="M15.6222 5.56534L8 5.21753L0.377748 5.56534C0.305123 5.79297 0.242592 6.02506 0.190186 6.261H15.8097C15.7573 6.02503 15.6948 5.7929 15.6222 5.56534Z" fill="#D80027"/>
<path d="M0.190308 9.73926C0.242651 9.9752 0.305183 10.2073 0.377808 10.4349L0.378558 10.4349L8 10.7827L15.6222 10.4349C15.6948 10.2073 15.7574 9.9752 15.8097 9.73926H0.190308Z" fill="#D80027"/>
<path d="M7.99999 16C11.5692 16 14.5921 13.6624 15.6222 10.4348H0.377808C1.40796 13.6624 4.43084 16 7.99999 16V16Z" fill="#6DA544"/>
<path d="M7.99996 3.13315e-10C4.43078 3.12503e-05 1.40797 2.33762 0.377747 5.56522L15.6222 5.56525C14.5921 2.33759 11.5692 -3.12497e-05 7.99996 3.13315e-10V3.13315e-10Z" fill="#338AF3"/>
<path d="M3.6558 3.3042C3.6558 2.55492 4.18239 1.92898 4.88561 1.77542C4.77755 1.75179 4.66539 1.73901 4.5502 1.73901C3.68577 1.73901 2.98499 2.43976 2.98499 3.30423C2.98499 4.1687 3.6857 4.86945 4.5502 4.86945C4.66539 4.86945 4.77752 4.85664 4.88561 4.83304C4.18242 4.67942 3.6558 4.05348 3.6558 3.3042V3.3042Z" fill="#F0F0F0"/>
<path d="M5.81075 4.01562L5.91669 4.34172H6.25956L5.98219 4.54328L6.08813 4.86937L5.81075 4.66784L5.53331 4.86937L5.63928 4.54328L5.36188 4.34172H5.70475L5.81075 4.01562Z" fill="#F0F0F0"/>
<path d="M6.90511 4.01562L7.01108 4.34172H7.35395L7.07655 4.54328L7.18252 4.86937L6.90511 4.66784L6.62771 4.86937L6.73367 4.54328L6.4563 4.34172H6.79914L6.90511 4.01562Z" fill="#F0F0F0"/>
<path d="M7.99953 4.01562L8.10547 4.34172H8.44838L8.17097 4.54328L8.27691 4.86937L7.99953 4.66784L7.7221 4.86937L7.8281 4.54328L7.55066 4.34172H7.89357L7.99953 4.01562Z" fill="#F0F0F0"/>
<path d="M9.09389 4.01562L9.19986 4.34172H9.54271L9.26533 4.54328L9.3713 4.86937L9.09389 4.66784L8.81646 4.86937L8.92246 4.54328L8.64502 4.34172H8.9879L9.09389 4.01562Z" fill="#F0F0F0"/>
<path d="M10.1883 4.01562L10.2943 4.34172H10.6372L10.3598 4.54328L10.4658 4.86937L10.1883 4.66784L9.91091 4.86937L10.0169 4.54328L9.7395 4.34172H10.0823L10.1883 4.01562Z" fill="#F0F0F0"/>
<path d="M6.90511 2.87744L7.01108 3.2035H7.35395L7.07655 3.4051L7.18252 3.73116L6.90511 3.52963L6.62771 3.73116L6.73367 3.4051L6.4563 3.2035H6.79914L6.90511 2.87744Z" fill="#F0F0F0"/>
<path d="M7.99953 2.87744L8.10547 3.2035H8.44838L8.17097 3.4051L8.27691 3.73116L7.99953 3.52963L7.7221 3.73116L7.8281 3.4051L7.55066 3.2035H7.89357L7.99953 2.87744Z" fill="#F0F0F0"/>
<path d="M9.09389 2.87744L9.19986 3.2035H9.54271L9.26533 3.4051L9.3713 3.73116L9.09389 3.52963L8.81646 3.73116L8.92246 3.4051L8.64502 3.2035H8.9879L9.09389 2.87744Z" fill="#F0F0F0"/>
<path d="M10.1883 2.87744L10.2943 3.2035H10.6372L10.3598 3.4051L10.4658 3.73116L10.1883 3.52963L9.91091 3.73116L10.0169 3.4051L9.7395 3.2035H10.0823L10.1883 2.87744Z" fill="#F0F0F0"/>
<path d="M7.99953 1.73901L8.10547 2.06514H8.44838L8.17097 2.26667L8.27691 2.59279L7.99953 2.39126L7.7221 2.59279L7.8281 2.26667L7.55066 2.06514H7.89357L7.99953 1.73901Z" fill="#F0F0F0"/>
<path d="M9.09389 1.73901L9.19986 2.06514H9.54271L9.26533 2.26667L9.3713 2.59279L9.09389 2.39126L8.81646 2.59279L8.92246 2.26667L8.64502 2.06514H8.9879L9.09389 1.73901Z" fill="#F0F0F0"/>
<path d="M10.1883 1.73901L10.2943 2.06514H10.6372L10.3598 2.26667L10.4658 2.59279L10.1883 2.39126L9.91091 2.59279L10.0169 2.26667L9.7395 2.06514H10.0823L10.1883 1.73901Z" fill="#F0F0F0"/>
</g>
<defs>
<clipPath id="clip0_1_1435">
<rect width="16" height="16" fill="white"/>
</clipPath>
</defs>
</svg>
